<mxfile host="www.draw.io" modified="2023-12-21T13:23:17.076Z" agent="Mozilla/5.0 (Windows NT 10.0; Win64; x64) AppleWebKit/537.36 (KHTML, like Gecko) Chrome/120.0.0.0 Safari/537.36" etag="YY55zCNs9oLo83F1yWtk" version="22.1.11" type="device">
  <diagram name="Page-1" id="UsG_Hdet9PD4ZnRgsw_h">
    <mxGraphModel dx="2336" dy="1954" grid="1" gridSize="10" guides="1" tooltips="1" connect="1" arrows="1" fold="1" page="1" pageScale="1" pageWidth="827" pageHeight="1169" math="0" shadow="0">
      <root>
        <mxCell id="0" />
        <mxCell id="1" parent="0" />
        <mxCell id="9sP5_PO6IDdaQjhql2p2-43" value="" style="rounded=0;whiteSpace=wrap;html=1;" parent="1" vertex="1">
          <mxGeometry x="-520" y="-880" width="1510" height="2550" as="geometry" />
        </mxCell>
        <mxCell id="1z83b8Zoyd066qz08zac-14" value="Hospital Managers" style="shape=umlActor;verticalLabelPosition=bottom;verticalAlign=top;html=1;outlineConnect=0;" parent="1" vertex="1">
          <mxGeometry x="1070" y="1280" width="30" height="60" as="geometry" />
        </mxCell>
        <mxCell id="1z83b8Zoyd066qz08zac-15" value="Doc/Physicians" style="shape=umlActor;verticalLabelPosition=bottom;verticalAlign=top;html=1;outlineConnect=0;flipH=0;" parent="1" vertex="1">
          <mxGeometry x="1060" y="-570" width="30" height="60" as="geometry" />
        </mxCell>
        <mxCell id="1z83b8Zoyd066qz08zac-16" value="Receptionist" style="shape=umlActor;verticalLabelPosition=bottom;verticalAlign=top;html=1;outlineConnect=0;" parent="1" vertex="1">
          <mxGeometry x="1070" y="300" width="30" height="60" as="geometry" />
        </mxCell>
        <mxCell id="1z83b8Zoyd066qz08zac-17" value="Nurse" style="shape=umlActor;verticalLabelPosition=bottom;verticalAlign=top;html=1;outlineConnect=0;flipV=0;flipH=1;direction=east;" parent="1" vertex="1">
          <mxGeometry x="-576.1800000000001" y="300" width="30" height="60" as="geometry" />
        </mxCell>
        <mxCell id="1z83b8Zoyd066qz08zac-18" value="Lab Techician Staff" style="shape=umlActor;verticalLabelPosition=bottom;verticalAlign=top;html=1;outlineConnect=0;flipH=1;" parent="1" vertex="1">
          <mxGeometry x="1070" y="940" width="30" height="60" as="geometry" />
        </mxCell>
        <mxCell id="1z83b8Zoyd066qz08zac-19" value="SystemOperator" style="shape=umlActor;verticalLabelPosition=bottom;verticalAlign=top;html=1;outlineConnect=0;flipH=1;" parent="1" vertex="1">
          <mxGeometry x="-576.18" y="1307.5" width="30" height="60" as="geometry" />
        </mxCell>
        <mxCell id="1z83b8Zoyd066qz08zac-20" value="Patient" style="shape=umlActor;verticalLabelPosition=bottom;verticalAlign=top;html=1;outlineConnect=0;" parent="1" vertex="1">
          <mxGeometry x="-576.1800000000001" y="-570" width="30" height="60" as="geometry" />
        </mxCell>
        <mxCell id="1z83b8Zoyd066qz08zac-21" value="Pharmacist" style="shape=umlActor;verticalLabelPosition=bottom;verticalAlign=top;html=1;outlineConnect=0;" parent="1" vertex="1">
          <mxGeometry x="-576.18" y="828.5" width="30" height="60" as="geometry" />
        </mxCell>
        <mxCell id="1z83b8Zoyd066qz08zac-26" value="&lt;b&gt;&lt;font style=&quot;font-size: 16px;&quot;&gt;Login&lt;/font&gt;&lt;/b&gt;" style="ellipse;whiteSpace=wrap;html=1;" parent="1" vertex="1">
          <mxGeometry x="66.87" y="80" width="120" height="40" as="geometry" />
        </mxCell>
        <mxCell id="1z83b8Zoyd066qz08zac-27" value="Register" style="ellipse;whiteSpace=wrap;html=1;" parent="1" vertex="1">
          <mxGeometry x="-328.13" y="-720" width="120" height="40" as="geometry" />
        </mxCell>
        <mxCell id="1z83b8Zoyd066qz08zac-30" value="Book appointment" style="ellipse;whiteSpace=wrap;html=1;" parent="1" vertex="1">
          <mxGeometry x="-283.13" y="-290" width="120" height="55" as="geometry" />
        </mxCell>
        <mxCell id="1z83b8Zoyd066qz08zac-31" value="Access History and Records" style="ellipse;whiteSpace=wrap;html=1;" parent="1" vertex="1">
          <mxGeometry x="-243.13" y="-640" width="130" height="50" as="geometry" />
        </mxCell>
        <mxCell id="1z83b8Zoyd066qz08zac-32" value="Prescription Requests" style="ellipse;whiteSpace=wrap;html=1;" parent="1" vertex="1">
          <mxGeometry x="-238.13" y="-565" width="120" height="50" as="geometry" />
        </mxCell>
        <mxCell id="1z83b8Zoyd066qz08zac-33" value="Payment" style="ellipse;whiteSpace=wrap;html=1;" parent="1" vertex="1">
          <mxGeometry x="-303.13" y="-450" width="120" height="30" as="geometry" />
        </mxCell>
        <mxCell id="1z83b8Zoyd066qz08zac-35" value="Check Notification &amp;amp; Appointment Reminder" style="ellipse;whiteSpace=wrap;html=1;" parent="1" vertex="1">
          <mxGeometry x="-473.13" y="-190" width="140" height="60" as="geometry" />
        </mxCell>
        <mxCell id="1z83b8Zoyd066qz08zac-43" value="Communicate with Patient" style="ellipse;whiteSpace=wrap;html=1;flipH=1;flipV=0;" parent="1" vertex="1">
          <mxGeometry x="570" y="-573.78" width="120" height="40" as="geometry" />
        </mxCell>
        <mxCell id="1z83b8Zoyd066qz08zac-45" value="Access to Patient Information" style="ellipse;whiteSpace=wrap;html=1;flipH=0;flipV=1;" parent="1" vertex="1">
          <mxGeometry x="700" y="-620.78" width="120" height="50" as="geometry" />
        </mxCell>
        <mxCell id="1z83b8Zoyd066qz08zac-46" value="Manage Appointment Scheduling" style="ellipse;whiteSpace=wrap;html=1;flipH=1;flipV=0;" parent="1" vertex="1">
          <mxGeometry x="760" y="-238.78" width="130" height="60" as="geometry" />
        </mxCell>
        <mxCell id="1z83b8Zoyd066qz08zac-48" value="Order Tests" style="ellipse;whiteSpace=wrap;html=1;flipH=1;flipV=0;" parent="1" vertex="1">
          <mxGeometry x="550" y="-368.78" width="120" height="40" as="geometry" />
        </mxCell>
        <mxCell id="1z83b8Zoyd066qz08zac-49" value="Manage Prescription" style="ellipse;whiteSpace=wrap;html=1;flipH=1;flipV=0;" parent="1" vertex="1">
          <mxGeometry x="500" y="-510.78" width="120" height="40" as="geometry" />
        </mxCell>
        <mxCell id="1z83b8Zoyd066qz08zac-57" value="Patient Information Access" style="ellipse;whiteSpace=wrap;html=1;flipV=0;flipH=0;direction=east;" parent="1" vertex="1">
          <mxGeometry x="-413.55" y="205" width="130" height="50" as="geometry" />
        </mxCell>
        <mxCell id="1z83b8Zoyd066qz08zac-58" value="Patient Admission" style="ellipse;whiteSpace=wrap;html=1;flipV=0;flipH=0;direction=east;" parent="1" vertex="1">
          <mxGeometry x="-348.55" y="280" width="120" height="50" as="geometry" />
        </mxCell>
        <mxCell id="1z83b8Zoyd066qz08zac-59" value="Give prescribed treatment to patient" style="ellipse;whiteSpace=wrap;html=1;flipV=0;flipH=0;direction=east;" parent="1" vertex="1">
          <mxGeometry x="-365" y="500" width="130" height="50" as="geometry" />
        </mxCell>
        <mxCell id="1z83b8Zoyd066qz08zac-60" value="Record patient symptoms" style="ellipse;whiteSpace=wrap;html=1;flipV=0;flipH=0;direction=east;" parent="1" vertex="1">
          <mxGeometry x="-503.13000000000005" y="475" width="120" height="40" as="geometry" />
        </mxCell>
        <mxCell id="1z83b8Zoyd066qz08zac-65" value="Manage Users" style="ellipse;whiteSpace=wrap;html=1;" parent="1" vertex="1">
          <mxGeometry x="775" y="1199" width="140" height="60" as="geometry" />
        </mxCell>
        <mxCell id="1z83b8Zoyd066qz08zac-66" value="Staff Management" style="ellipse;whiteSpace=wrap;html=1;" parent="1" vertex="1">
          <mxGeometry x="775" y="1355" width="140" height="60" as="geometry" />
        </mxCell>
        <mxCell id="1z83b8Zoyd066qz08zac-71" value="Setup Hospital accounts" style="ellipse;whiteSpace=wrap;html=1;" parent="1" vertex="1">
          <mxGeometry x="-317.37" y="1479" width="140" height="60" as="geometry" />
        </mxCell>
        <mxCell id="1z83b8Zoyd066qz08zac-72" value="Manage User Accounts" style="ellipse;whiteSpace=wrap;html=1;" parent="1" vertex="1">
          <mxGeometry x="-427.37" y="1294" width="140" height="60" as="geometry" />
        </mxCell>
        <mxCell id="1z83b8Zoyd066qz08zac-78" value="Enter data" style="ellipse;whiteSpace=wrap;html=1;flipH=0;flipV=1;direction=west;" parent="1" vertex="1">
          <mxGeometry x="660" y="910" width="140" height="60" as="geometry" />
        </mxCell>
        <mxCell id="1z83b8Zoyd066qz08zac-79" value="Troubleshoot&amp;nbsp; instrument" style="ellipse;whiteSpace=wrap;html=1;flipH=1;direction=west;" parent="1" vertex="1">
          <mxGeometry x="750" y="1011" width="140" height="60" as="geometry" />
        </mxCell>
        <mxCell id="1z83b8Zoyd066qz08zac-80" value="Test Request Handling" style="ellipse;whiteSpace=wrap;html=1;flipH=1;direction=west;" parent="1" vertex="1">
          <mxGeometry x="576" y="780" width="140" height="60" as="geometry" />
        </mxCell>
        <mxCell id="1z83b8Zoyd066qz08zac-83" value="Patient Registration" style="ellipse;whiteSpace=wrap;html=1;" parent="1" vertex="1">
          <mxGeometry x="550" y="170" width="140" height="60" as="geometry" />
        </mxCell>
        <mxCell id="1z83b8Zoyd066qz08zac-86" value="Schedule patient appointment" style="ellipse;whiteSpace=wrap;html=1;" parent="1" vertex="1">
          <mxGeometry x="510" y="-20" width="140" height="60" as="geometry" />
        </mxCell>
        <mxCell id="1z83b8Zoyd066qz08zac-87" value="Patient check-in" style="ellipse;whiteSpace=wrap;html=1;" parent="1" vertex="1">
          <mxGeometry x="440" y="570" width="140" height="60" as="geometry" />
        </mxCell>
        <mxCell id="1z83b8Zoyd066qz08zac-88" value="Medical Records Management" style="ellipse;whiteSpace=wrap;html=1;" parent="1" vertex="1">
          <mxGeometry x="460" y="347.5" width="140" height="60" as="geometry" />
        </mxCell>
        <mxCell id="1z83b8Zoyd066qz08zac-89" value="Receive payment" style="ellipse;whiteSpace=wrap;html=1;" parent="1" vertex="1">
          <mxGeometry x="520" y="270" width="140" height="60" as="geometry" />
        </mxCell>
        <mxCell id="1z83b8Zoyd066qz08zac-90" value="Patient Information Updates" style="ellipse;whiteSpace=wrap;html=1;" parent="1" vertex="1">
          <mxGeometry x="848.5" y="515" width="133" height="60" as="geometry" />
        </mxCell>
        <mxCell id="1z83b8Zoyd066qz08zac-93" value="Medication dispensing" style="ellipse;whiteSpace=wrap;html=1;" parent="1" vertex="1">
          <mxGeometry x="-388.13" y="711" width="140" height="60" as="geometry" />
        </mxCell>
        <mxCell id="1z83b8Zoyd066qz08zac-94" value="Prescription Verification" style="ellipse;whiteSpace=wrap;html=1;" parent="1" vertex="1">
          <mxGeometry x="-333.13" y="828.5" width="140" height="60" as="geometry" />
        </mxCell>
        <mxCell id="1z83b8Zoyd066qz08zac-95" value="Inventory Management" style="ellipse;whiteSpace=wrap;html=1;" parent="1" vertex="1">
          <mxGeometry x="-383.13" y="931" width="140" height="60" as="geometry" />
        </mxCell>
        <mxCell id="1z83b8Zoyd066qz08zac-96" value="Medication Information" style="ellipse;whiteSpace=wrap;html=1;" parent="1" vertex="1">
          <mxGeometry x="-468.13" y="1020" width="140" height="60" as="geometry" />
        </mxCell>
        <mxCell id="1z83b8Zoyd066qz08zac-104" value="" style="endArrow=none;html=1;rounded=0;entryX=0;entryY=0.5;entryDx=0;entryDy=0;exitX=1;exitY=0.3333333333333333;exitDx=0;exitDy=0;exitPerimeter=0;" parent="1" source="1z83b8Zoyd066qz08zac-20" target="1z83b8Zoyd066qz08zac-27" edge="1">
          <mxGeometry width="50" height="50" relative="1" as="geometry">
            <mxPoint x="-483.13" y="-540" as="sourcePoint" />
            <mxPoint x="-373.13" y="-740" as="targetPoint" />
          </mxGeometry>
        </mxCell>
        <mxCell id="1z83b8Zoyd066qz08zac-105" value="" style="endArrow=none;html=1;rounded=0;entryX=0;entryY=0.5;entryDx=0;entryDy=0;exitX=1;exitY=0.3333333333333333;exitDx=0;exitDy=0;exitPerimeter=0;" parent="1" source="1z83b8Zoyd066qz08zac-20" target="1z83b8Zoyd066qz08zac-30" edge="1">
          <mxGeometry width="50" height="50" relative="1" as="geometry">
            <mxPoint x="-493.13" y="-540" as="sourcePoint" />
            <mxPoint x="-263.13" y="-700" as="targetPoint" />
          </mxGeometry>
        </mxCell>
        <mxCell id="1z83b8Zoyd066qz08zac-106" value="" style="endArrow=none;html=1;rounded=0;entryX=0;entryY=0.5;entryDx=0;entryDy=0;exitX=1;exitY=0.3333333333333333;exitDx=0;exitDy=0;exitPerimeter=0;" parent="1" source="1z83b8Zoyd066qz08zac-20" target="1z83b8Zoyd066qz08zac-31" edge="1">
          <mxGeometry width="50" height="50" relative="1" as="geometry">
            <mxPoint x="-493.13" y="-540" as="sourcePoint" />
            <mxPoint x="-203.13" y="-655" as="targetPoint" />
          </mxGeometry>
        </mxCell>
        <mxCell id="1z83b8Zoyd066qz08zac-107" value="" style="endArrow=none;html=1;rounded=0;entryX=0;entryY=0.5;entryDx=0;entryDy=0;exitX=1;exitY=0.3333333333333333;exitDx=0;exitDy=0;exitPerimeter=0;" parent="1" source="1z83b8Zoyd066qz08zac-20" target="1z83b8Zoyd066qz08zac-32" edge="1">
          <mxGeometry width="50" height="50" relative="1" as="geometry">
            <mxPoint x="-493.13" y="-540" as="sourcePoint" />
            <mxPoint x="-203.13" y="-605" as="targetPoint" />
          </mxGeometry>
        </mxCell>
        <mxCell id="1z83b8Zoyd066qz08zac-108" value="" style="endArrow=none;html=1;rounded=0;entryX=0;entryY=0.5;entryDx=0;entryDy=0;exitX=1;exitY=0.3333333333333333;exitDx=0;exitDy=0;exitPerimeter=0;" parent="1" source="1z83b8Zoyd066qz08zac-20" target="1z83b8Zoyd066qz08zac-33" edge="1">
          <mxGeometry width="50" height="50" relative="1" as="geometry">
            <mxPoint x="-513.13" y="-540" as="sourcePoint" />
            <mxPoint x="-213.13" y="-555" as="targetPoint" />
          </mxGeometry>
        </mxCell>
        <mxCell id="1z83b8Zoyd066qz08zac-109" value="" style="endArrow=none;html=1;rounded=0;entryX=0.5;entryY=0;entryDx=0;entryDy=0;exitX=1;exitY=0.3333333333333333;exitDx=0;exitDy=0;exitPerimeter=0;" parent="1" source="1z83b8Zoyd066qz08zac-20" target="1z83b8Zoyd066qz08zac-35" edge="1">
          <mxGeometry width="50" height="50" relative="1" as="geometry">
            <mxPoint x="-493.13" y="-500" as="sourcePoint" />
            <mxPoint x="-253.13" y="-505" as="targetPoint" />
          </mxGeometry>
        </mxCell>
        <mxCell id="1z83b8Zoyd066qz08zac-111" value="" style="endArrow=none;html=1;rounded=0;entryX=0;entryY=0.5;entryDx=0;entryDy=0;exitX=1;exitY=0.3333333333333333;exitDx=0;exitDy=0;exitPerimeter=0;" parent="1" source="1z83b8Zoyd066qz08zac-21" target="1z83b8Zoyd066qz08zac-93" edge="1">
          <mxGeometry width="50" height="50" relative="1" as="geometry">
            <mxPoint x="-355" y="877.5" as="sourcePoint" />
            <mxPoint x="-275" y="707.5" as="targetPoint" />
          </mxGeometry>
        </mxCell>
        <mxCell id="1z83b8Zoyd066qz08zac-112" value="" style="endArrow=none;html=1;rounded=0;entryX=0;entryY=0.5;entryDx=0;entryDy=0;exitX=1;exitY=0.3333333333333333;exitDx=0;exitDy=0;exitPerimeter=0;" parent="1" source="1z83b8Zoyd066qz08zac-21" target="1z83b8Zoyd066qz08zac-94" edge="1">
          <mxGeometry width="50" height="50" relative="1" as="geometry">
            <mxPoint x="-355" y="877.5" as="sourcePoint" />
            <mxPoint x="-155" y="777.5" as="targetPoint" />
          </mxGeometry>
        </mxCell>
        <mxCell id="1z83b8Zoyd066qz08zac-113" value="" style="endArrow=none;html=1;rounded=0;entryX=0;entryY=0.5;entryDx=0;entryDy=0;exitX=1;exitY=0.3333333333333333;exitDx=0;exitDy=0;exitPerimeter=0;" parent="1" source="1z83b8Zoyd066qz08zac-21" target="1z83b8Zoyd066qz08zac-95" edge="1">
          <mxGeometry width="50" height="50" relative="1" as="geometry">
            <mxPoint x="-355" y="877.5" as="sourcePoint" />
            <mxPoint x="-75" y="887.5" as="targetPoint" />
          </mxGeometry>
        </mxCell>
        <mxCell id="1z83b8Zoyd066qz08zac-114" value="" style="endArrow=none;html=1;rounded=0;entryX=-0.001;entryY=0.404;entryDx=0;entryDy=0;exitX=1;exitY=0.3333333333333333;exitDx=0;exitDy=0;exitPerimeter=0;entryPerimeter=0;" parent="1" source="1z83b8Zoyd066qz08zac-21" target="1z83b8Zoyd066qz08zac-96" edge="1">
          <mxGeometry width="50" height="50" relative="1" as="geometry">
            <mxPoint x="-355" y="877.5" as="sourcePoint" />
            <mxPoint x="-135" y="971.5" as="targetPoint" />
          </mxGeometry>
        </mxCell>
        <mxCell id="1z83b8Zoyd066qz08zac-118" value="" style="endArrow=none;html=1;rounded=0;exitX=1;exitY=0.5;exitDx=0;exitDy=0;entryX=0;entryY=0.3333333333333333;entryDx=0;entryDy=0;entryPerimeter=0;" parent="1" source="1z83b8Zoyd066qz08zac-45" target="1z83b8Zoyd066qz08zac-15" edge="1">
          <mxGeometry width="50" height="50" relative="1" as="geometry">
            <mxPoint x="1863" y="-632.78" as="sourcePoint" />
            <mxPoint x="1943" y="-437.78" as="targetPoint" />
          </mxGeometry>
        </mxCell>
        <mxCell id="1z83b8Zoyd066qz08zac-119" value="" style="endArrow=none;html=1;rounded=0;entryX=0;entryY=0.3333333333333333;entryDx=0;entryDy=0;entryPerimeter=0;exitX=1;exitY=0;exitDx=0;exitDy=0;" parent="1" source="1z83b8Zoyd066qz08zac-46" target="1z83b8Zoyd066qz08zac-15" edge="1">
          <mxGeometry width="50" height="50" relative="1" as="geometry">
            <mxPoint x="1763" y="-597.78" as="sourcePoint" />
            <mxPoint x="1963" y="-437.78" as="targetPoint" />
          </mxGeometry>
        </mxCell>
        <mxCell id="1z83b8Zoyd066qz08zac-120" value="" style="endArrow=none;html=1;rounded=0;entryX=0;entryY=0.3333333333333333;entryDx=0;entryDy=0;entryPerimeter=0;exitX=1;exitY=0.5;exitDx=0;exitDy=0;" parent="1" source="1z83b8Zoyd066qz08zac-49" target="1z83b8Zoyd066qz08zac-15" edge="1">
          <mxGeometry width="50" height="50" relative="1" as="geometry">
            <mxPoint x="1793" y="-677.78" as="sourcePoint" />
            <mxPoint x="1963" y="-437.78" as="targetPoint" />
          </mxGeometry>
        </mxCell>
        <mxCell id="1z83b8Zoyd066qz08zac-121" value="" style="endArrow=none;html=1;rounded=0;entryX=0;entryY=0.3333333333333333;entryDx=0;entryDy=0;entryPerimeter=0;exitX=1;exitY=0.5;exitDx=0;exitDy=0;" parent="1" source="1z83b8Zoyd066qz08zac-48" target="1z83b8Zoyd066qz08zac-15" edge="1">
          <mxGeometry width="50" height="50" relative="1" as="geometry">
            <mxPoint x="1783" y="-467.78" as="sourcePoint" />
            <mxPoint x="1963" y="-437.78" as="targetPoint" />
          </mxGeometry>
        </mxCell>
        <mxCell id="1z83b8Zoyd066qz08zac-122" value="" style="endArrow=none;html=1;rounded=0;exitX=1;exitY=0.5;exitDx=0;exitDy=0;entryX=0;entryY=0.3333333333333333;entryDx=0;entryDy=0;entryPerimeter=0;" parent="1" source="1z83b8Zoyd066qz08zac-43" target="1z83b8Zoyd066qz08zac-15" edge="1">
          <mxGeometry width="50" height="50" relative="1" as="geometry">
            <mxPoint x="1793" y="-457.78" as="sourcePoint" />
            <mxPoint x="1963" y="-457.78" as="targetPoint" />
          </mxGeometry>
        </mxCell>
        <mxCell id="1z83b8Zoyd066qz08zac-125" value="" style="endArrow=none;html=1;rounded=0;exitX=0;exitY=0.5;exitDx=0;exitDy=0;entryX=0;entryY=0.3333333333333333;entryDx=0;entryDy=0;entryPerimeter=0;" parent="1" source="1z83b8Zoyd066qz08zac-57" target="1z83b8Zoyd066qz08zac-17" edge="1">
          <mxGeometry width="50" height="50" relative="1" as="geometry">
            <mxPoint x="-427.6299999999991" y="85.24000000000001" as="sourcePoint" />
            <mxPoint x="-347.6299999999991" y="195.24" as="targetPoint" />
          </mxGeometry>
        </mxCell>
        <mxCell id="1z83b8Zoyd066qz08zac-126" value="" style="endArrow=none;html=1;rounded=0;exitX=0;exitY=0;exitDx=0;exitDy=0;entryX=0;entryY=0.3333333333333333;entryDx=0;entryDy=0;entryPerimeter=0;" parent="1" source="1z83b8Zoyd066qz08zac-59" target="1z83b8Zoyd066qz08zac-17" edge="1">
          <mxGeometry width="50" height="50" relative="1" as="geometry">
            <mxPoint x="-527.63" y="125.24000000000001" as="sourcePoint" />
            <mxPoint x="-347.63" y="195.24" as="targetPoint" />
          </mxGeometry>
        </mxCell>
        <mxCell id="1z83b8Zoyd066qz08zac-127" value="" style="endArrow=none;html=1;rounded=0;exitX=0;exitY=0;exitDx=0;exitDy=0;entryX=0;entryY=0.3333333333333333;entryDx=0;entryDy=0;entryPerimeter=0;" parent="1" source="1z83b8Zoyd066qz08zac-60" target="1z83b8Zoyd066qz08zac-17" edge="1">
          <mxGeometry width="50" height="50" relative="1" as="geometry">
            <mxPoint x="-597.6299999999982" y="175.24" as="sourcePoint" />
            <mxPoint x="-347.6299999999982" y="195.24" as="targetPoint" />
          </mxGeometry>
        </mxCell>
        <mxCell id="1z83b8Zoyd066qz08zac-128" value="" style="endArrow=none;html=1;rounded=0;exitX=0;exitY=0.5;exitDx=0;exitDy=0;entryX=0;entryY=0.3333333333333333;entryDx=0;entryDy=0;entryPerimeter=0;" parent="1" source="1z83b8Zoyd066qz08zac-58" target="1z83b8Zoyd066qz08zac-17" edge="1">
          <mxGeometry width="50" height="50" relative="1" as="geometry">
            <mxPoint x="-557.6299999999991" y="240.24" as="sourcePoint" />
            <mxPoint x="-347.6299999999991" y="195.24" as="targetPoint" />
          </mxGeometry>
        </mxCell>
        <mxCell id="1z83b8Zoyd066qz08zac-130" value="" style="endArrow=none;html=1;rounded=0;exitX=0;exitY=0.5;exitDx=0;exitDy=0;entryX=0;entryY=0.3333333333333333;entryDx=0;entryDy=0;entryPerimeter=0;" parent="1" source="1z83b8Zoyd066qz08zac-71" target="1z83b8Zoyd066qz08zac-19" edge="1">
          <mxGeometry width="50" height="50" relative="1" as="geometry">
            <mxPoint x="-317.63" y="1362.5" as="sourcePoint" />
            <mxPoint x="-217.63" y="1482.5" as="targetPoint" />
          </mxGeometry>
        </mxCell>
        <mxCell id="1z83b8Zoyd066qz08zac-131" value="" style="endArrow=none;html=1;rounded=0;exitX=0;exitY=0.5;exitDx=0;exitDy=0;entryX=0;entryY=0.3333333333333333;entryDx=0;entryDy=0;entryPerimeter=0;" parent="1" source="1z83b8Zoyd066qz08zac-72" target="1z83b8Zoyd066qz08zac-19" edge="1">
          <mxGeometry width="50" height="50" relative="1" as="geometry">
            <mxPoint x="-307.63" y="1372.5" as="sourcePoint" />
            <mxPoint x="-207.63" y="1492.5" as="targetPoint" />
          </mxGeometry>
        </mxCell>
        <mxCell id="1z83b8Zoyd066qz08zac-135" value="" style="endArrow=none;html=1;rounded=0;exitX=1;exitY=0.5;exitDx=0;exitDy=0;entryX=0;entryY=0.3333333333333333;entryDx=0;entryDy=0;entryPerimeter=0;" parent="1" source="1z83b8Zoyd066qz08zac-65" target="1z83b8Zoyd066qz08zac-14" edge="1">
          <mxGeometry width="50" height="50" relative="1" as="geometry">
            <mxPoint x="727" y="1229" as="sourcePoint" />
            <mxPoint x="794" y="1309" as="targetPoint" />
          </mxGeometry>
        </mxCell>
        <mxCell id="1z83b8Zoyd066qz08zac-136" value="" style="endArrow=none;html=1;rounded=0;exitX=1;exitY=0.5;exitDx=0;exitDy=0;entryX=0;entryY=0.3333333333333333;entryDx=0;entryDy=0;entryPerimeter=0;" parent="1" source="1z83b8Zoyd066qz08zac-66" target="1z83b8Zoyd066qz08zac-14" edge="1">
          <mxGeometry width="50" height="50" relative="1" as="geometry">
            <mxPoint x="737" y="1239" as="sourcePoint" />
            <mxPoint x="804" y="1319" as="targetPoint" />
          </mxGeometry>
        </mxCell>
        <mxCell id="1z83b8Zoyd066qz08zac-138" value="" style="endArrow=none;html=1;rounded=0;exitX=1;exitY=0.3333333333333333;exitDx=0;exitDy=0;entryX=0;entryY=0.5;entryDx=0;entryDy=0;exitPerimeter=0;" parent="1" source="1z83b8Zoyd066qz08zac-18" target="1z83b8Zoyd066qz08zac-78" edge="1">
          <mxGeometry width="50" height="50" relative="1" as="geometry">
            <mxPoint x="910" y="955" as="sourcePoint" />
            <mxPoint x="1050" y="865" as="targetPoint" />
          </mxGeometry>
        </mxCell>
        <mxCell id="1z83b8Zoyd066qz08zac-139" value="" style="endArrow=none;html=1;rounded=0;exitX=1;exitY=0.3333333333333333;exitDx=0;exitDy=0;entryX=0;entryY=0.5;entryDx=0;entryDy=0;exitPerimeter=0;" parent="1" source="1z83b8Zoyd066qz08zac-18" target="1z83b8Zoyd066qz08zac-79" edge="1">
          <mxGeometry width="50" height="50" relative="1" as="geometry">
            <mxPoint x="910" y="955" as="sourcePoint" />
            <mxPoint x="1140" y="945" as="targetPoint" />
          </mxGeometry>
        </mxCell>
        <mxCell id="1z83b8Zoyd066qz08zac-140" value="" style="endArrow=none;html=1;rounded=0;entryX=0;entryY=0.5;entryDx=0;entryDy=0;exitX=1;exitY=0.3333333333333333;exitDx=0;exitDy=0;exitPerimeter=0;" parent="1" source="1z83b8Zoyd066qz08zac-18" target="1z83b8Zoyd066qz08zac-80" edge="1">
          <mxGeometry width="50" height="50" relative="1" as="geometry">
            <mxPoint x="900" y="945" as="sourcePoint" />
            <mxPoint x="1140" y="1035" as="targetPoint" />
          </mxGeometry>
        </mxCell>
        <mxCell id="1z83b8Zoyd066qz08zac-141" value="" style="endArrow=none;html=1;rounded=0;exitX=0;exitY=0.3333333333333333;exitDx=0;exitDy=0;entryX=1;entryY=0.5;entryDx=0;entryDy=0;exitPerimeter=0;" parent="1" source="1z83b8Zoyd066qz08zac-16" target="1z83b8Zoyd066qz08zac-83" edge="1">
          <mxGeometry width="50" height="50" relative="1" as="geometry">
            <mxPoint x="890" y="375" as="sourcePoint" />
            <mxPoint x="1060" y="285" as="targetPoint" />
          </mxGeometry>
        </mxCell>
        <mxCell id="1z83b8Zoyd066qz08zac-143" value="" style="endArrow=none;html=1;rounded=0;exitX=0;exitY=0.3333333333333333;exitDx=0;exitDy=0;entryX=1;entryY=0.5;entryDx=0;entryDy=0;exitPerimeter=0;" parent="1" source="1z83b8Zoyd066qz08zac-16" target="1z83b8Zoyd066qz08zac-86" edge="1">
          <mxGeometry width="50" height="50" relative="1" as="geometry">
            <mxPoint x="910" y="485" as="sourcePoint" />
            <mxPoint x="1200" y="455" as="targetPoint" />
          </mxGeometry>
        </mxCell>
        <mxCell id="1z83b8Zoyd066qz08zac-144" value="" style="endArrow=none;html=1;rounded=0;exitX=0;exitY=0.3333333333333333;exitDx=0;exitDy=0;exitPerimeter=0;entryX=1;entryY=0.5;entryDx=0;entryDy=0;" parent="1" source="1z83b8Zoyd066qz08zac-16" target="1z83b8Zoyd066qz08zac-87" edge="1">
          <mxGeometry width="50" height="50" relative="1" as="geometry">
            <mxPoint x="910" y="485" as="sourcePoint" />
            <mxPoint x="750" y="520" as="targetPoint" />
          </mxGeometry>
        </mxCell>
        <mxCell id="1z83b8Zoyd066qz08zac-145" value="" style="endArrow=none;html=1;rounded=0;exitX=0;exitY=0.3333333333333333;exitDx=0;exitDy=0;entryX=1;entryY=0.5;entryDx=0;entryDy=0;exitPerimeter=0;" parent="1" source="1z83b8Zoyd066qz08zac-16" target="1z83b8Zoyd066qz08zac-88" edge="1">
          <mxGeometry width="50" height="50" relative="1" as="geometry">
            <mxPoint x="895" y="495" as="sourcePoint" />
            <mxPoint x="1220" y="625" as="targetPoint" />
          </mxGeometry>
        </mxCell>
        <mxCell id="1z83b8Zoyd066qz08zac-146" value="" style="endArrow=none;html=1;rounded=0;exitX=0;exitY=0.3333333333333333;exitDx=0;exitDy=0;entryX=1;entryY=0.5;entryDx=0;entryDy=0;exitPerimeter=0;" parent="1" source="1z83b8Zoyd066qz08zac-16" target="1z83b8Zoyd066qz08zac-89" edge="1">
          <mxGeometry width="50" height="50" relative="1" as="geometry">
            <mxPoint x="895" y="495" as="sourcePoint" />
            <mxPoint x="1170" y="705" as="targetPoint" />
          </mxGeometry>
        </mxCell>
        <mxCell id="1z83b8Zoyd066qz08zac-147" value="" style="endArrow=none;html=1;rounded=0;entryX=0.5;entryY=0;entryDx=0;entryDy=0;exitX=0;exitY=0.3333333333333333;exitDx=0;exitDy=0;exitPerimeter=0;" parent="1" source="1z83b8Zoyd066qz08zac-16" target="1z83b8Zoyd066qz08zac-90" edge="1">
          <mxGeometry width="50" height="50" relative="1" as="geometry">
            <mxPoint x="900" y="595" as="sourcePoint" />
            <mxPoint x="1130" y="785" as="targetPoint" />
          </mxGeometry>
        </mxCell>
        <mxCell id="BVjcmCBbwz0uoPhI7Mcz-15" value="Reset Password" style="ellipse;whiteSpace=wrap;html=1;" parent="1" vertex="1">
          <mxGeometry x="-52.370000000000005" y="1356.5" width="110" height="40" as="geometry" />
        </mxCell>
        <mxCell id="BVjcmCBbwz0uoPhI7Mcz-16" value="Create account" style="ellipse;whiteSpace=wrap;html=1;" parent="1" vertex="1">
          <mxGeometry x="-39.370000000000005" y="1259" width="117" height="35" as="geometry" />
        </mxCell>
        <mxCell id="BVjcmCBbwz0uoPhI7Mcz-17" value="" style="endArrow=open;dashed=1;html=1;rounded=0;exitX=0;exitY=0.5;exitDx=0;exitDy=0;endFill=0;entryX=1;entryY=1;entryDx=0;entryDy=0;" parent="1" source="BVjcmCBbwz0uoPhI7Mcz-15" target="1z83b8Zoyd066qz08zac-72" edge="1">
          <mxGeometry width="50" height="50" relative="1" as="geometry">
            <mxPoint x="-135.63" y="1277.5" as="sourcePoint" />
            <mxPoint x="-85.63" y="1227.5" as="targetPoint" />
          </mxGeometry>
        </mxCell>
        <mxCell id="BVjcmCBbwz0uoPhI7Mcz-18" value="&lt;font style=&quot;font-size: 16px;&quot;&gt;&lt;b&gt;&amp;lt;&amp;lt; extended &amp;gt;&amp;gt;&lt;/b&gt;&lt;/font&gt;" style="edgeLabel;html=1;align=center;verticalAlign=middle;resizable=0;points=[];" parent="BVjcmCBbwz0uoPhI7Mcz-17" vertex="1" connectable="0">
          <mxGeometry x="0.1012" y="1" relative="1" as="geometry">
            <mxPoint x="17" y="-13" as="offset" />
          </mxGeometry>
        </mxCell>
        <mxCell id="BVjcmCBbwz0uoPhI7Mcz-19" value="" style="endArrow=open;dashed=1;html=1;rounded=0;exitX=0.5;exitY=1;exitDx=0;exitDy=0;entryX=1;entryY=0;entryDx=0;entryDy=0;endFill=0;" parent="1" source="BVjcmCBbwz0uoPhI7Mcz-16" target="1z83b8Zoyd066qz08zac-72" edge="1">
          <mxGeometry width="50" height="50" relative="1" as="geometry">
            <mxPoint x="-78.63" y="1301.5" as="sourcePoint" />
            <mxPoint x="34.370000000000005" y="1316.5" as="targetPoint" />
          </mxGeometry>
        </mxCell>
        <mxCell id="BVjcmCBbwz0uoPhI7Mcz-20" value="&lt;b&gt;&lt;font style=&quot;font-size: 16px;&quot;&gt;&amp;lt;&amp;lt; extended &amp;gt;&amp;gt;&lt;/font&gt;&lt;/b&gt;" style="edgeLabel;html=1;align=center;verticalAlign=middle;resizable=0;points=[];" parent="BVjcmCBbwz0uoPhI7Mcz-19" vertex="1" connectable="0">
          <mxGeometry x="0.1012" y="1" relative="1" as="geometry">
            <mxPoint as="offset" />
          </mxGeometry>
        </mxCell>
        <mxCell id="BVjcmCBbwz0uoPhI7Mcz-44" value="Hiring" style="ellipse;whiteSpace=wrap;html=1;" parent="1" vertex="1">
          <mxGeometry x="524" y="1395" width="140" height="60" as="geometry" />
        </mxCell>
        <mxCell id="BVjcmCBbwz0uoPhI7Mcz-45" value="Evaluation" style="ellipse;whiteSpace=wrap;html=1;" parent="1" vertex="1">
          <mxGeometry x="820" y="1570" width="140" height="60" as="geometry" />
        </mxCell>
        <mxCell id="BVjcmCBbwz0uoPhI7Mcz-46" value="" style="endArrow=open;dashed=1;html=1;rounded=0;exitX=0.5;exitY=0;exitDx=0;exitDy=0;entryX=1;entryY=1;entryDx=0;entryDy=0;startArrow=none;startFill=0;endFill=0;" parent="1" source="BVjcmCBbwz0uoPhI7Mcz-45" target="1z83b8Zoyd066qz08zac-66" edge="1">
          <mxGeometry width="50" height="50" relative="1" as="geometry">
            <mxPoint x="724" y="1489" as="sourcePoint" />
            <mxPoint x="774" y="1439" as="targetPoint" />
          </mxGeometry>
        </mxCell>
        <mxCell id="BVjcmCBbwz0uoPhI7Mcz-50" value="&lt;b style=&quot;border-color: var(--border-color);&quot;&gt;&lt;font style=&quot;border-color: var(--border-color); font-size: 16px;&quot;&gt;&amp;lt;&amp;lt; extend &amp;gt;&amp;gt;&lt;/font&gt;&lt;/b&gt;" style="edgeLabel;html=1;align=center;verticalAlign=middle;resizable=0;points=[];" parent="BVjcmCBbwz0uoPhI7Mcz-46" vertex="1" connectable="0">
          <mxGeometry x="-0.0539" y="-2" relative="1" as="geometry">
            <mxPoint as="offset" />
          </mxGeometry>
        </mxCell>
        <mxCell id="BVjcmCBbwz0uoPhI7Mcz-47" value="" style="endArrow=open;dashed=1;html=1;rounded=0;exitX=1;exitY=0;exitDx=0;exitDy=0;entryX=0;entryY=0.5;entryDx=0;entryDy=0;startArrow=none;startFill=0;endFill=0;" parent="1" source="BVjcmCBbwz0uoPhI7Mcz-44" target="1z83b8Zoyd066qz08zac-66" edge="1">
          <mxGeometry width="50" height="50" relative="1" as="geometry">
            <mxPoint x="624" y="1491" as="sourcePoint" />
            <mxPoint x="664" y="1427" as="targetPoint" />
          </mxGeometry>
        </mxCell>
        <mxCell id="BVjcmCBbwz0uoPhI7Mcz-49" value="&lt;b&gt;&lt;font style=&quot;font-size: 16px;&quot;&gt;&amp;lt;&amp;lt; extend &amp;gt;&amp;gt;&lt;/font&gt;&lt;/b&gt;" style="edgeLabel;html=1;align=center;verticalAlign=middle;resizable=0;points=[];" parent="BVjcmCBbwz0uoPhI7Mcz-47" vertex="1" connectable="0">
          <mxGeometry x="-0.0519" y="-2" relative="1" as="geometry">
            <mxPoint y="1" as="offset" />
          </mxGeometry>
        </mxCell>
        <mxCell id="BVjcmCBbwz0uoPhI7Mcz-51" value="Update records" style="ellipse;whiteSpace=wrap;html=1;flipV=0;flipH=0;direction=east;" parent="1" vertex="1">
          <mxGeometry x="-248.55" y="110" width="115" height="45" as="geometry" />
        </mxCell>
        <mxCell id="BVjcmCBbwz0uoPhI7Mcz-52" value="" style="endArrow=none;dashed=1;html=1;rounded=0;exitX=0.5;exitY=0;exitDx=0;exitDy=0;entryX=0;entryY=1;entryDx=0;entryDy=0;startArrow=open;startFill=0;" parent="1" source="1z83b8Zoyd066qz08zac-57" target="BVjcmCBbwz0uoPhI7Mcz-51" edge="1">
          <mxGeometry width="50" height="50" relative="1" as="geometry">
            <mxPoint x="32.370000000000005" y="350" as="sourcePoint" />
            <mxPoint x="82.37" y="300" as="targetPoint" />
          </mxGeometry>
        </mxCell>
        <mxCell id="BVjcmCBbwz0uoPhI7Mcz-55" value="&lt;font style=&quot;font-size: 16px;&quot;&gt;&lt;b&gt;&amp;lt;&amp;lt; extend &amp;gt;&amp;gt;&lt;/b&gt;&lt;/font&gt;" style="edgeLabel;html=1;align=center;verticalAlign=middle;resizable=0;points=[];" parent="BVjcmCBbwz0uoPhI7Mcz-52" vertex="1" connectable="0">
          <mxGeometry x="0.1992" relative="1" as="geometry">
            <mxPoint as="offset" />
          </mxGeometry>
        </mxCell>
        <mxCell id="BVjcmCBbwz0uoPhI7Mcz-56" value="Admits patients to their signed bed" style="ellipse;whiteSpace=wrap;html=1;flipV=0;flipH=0;direction=east;" parent="1" vertex="1">
          <mxGeometry x="110" y="590" width="120" height="50" as="geometry" />
        </mxCell>
        <mxCell id="BVjcmCBbwz0uoPhI7Mcz-57" value="Complete Discharge" style="ellipse;whiteSpace=wrap;html=1;flipV=0;flipH=0;direction=east;" parent="1" vertex="1">
          <mxGeometry x="149.99999999999997" y="730" width="120" height="50" as="geometry" />
        </mxCell>
        <mxCell id="BVjcmCBbwz0uoPhI7Mcz-58" value="" style="endArrow=none;dashed=1;html=1;rounded=0;exitX=0;exitY=0.5;exitDx=0;exitDy=0;entryX=1;entryY=0.5;entryDx=0;entryDy=0;startArrow=open;startFill=0;" parent="1" source="BVjcmCBbwz0uoPhI7Mcz-56" target="1z83b8Zoyd066qz08zac-58" edge="1">
          <mxGeometry width="50" height="50" relative="1" as="geometry">
            <mxPoint x="742.37" y="370" as="sourcePoint" />
            <mxPoint x="692.37" y="420" as="targetPoint" />
          </mxGeometry>
        </mxCell>
        <mxCell id="BVjcmCBbwz0uoPhI7Mcz-60" value="Text" style="edgeLabel;html=1;align=center;verticalAlign=middle;resizable=0;points=[];" parent="BVjcmCBbwz0uoPhI7Mcz-58" vertex="1" connectable="0">
          <mxGeometry x="-0.0841" relative="1" as="geometry">
            <mxPoint as="offset" />
          </mxGeometry>
        </mxCell>
        <mxCell id="BVjcmCBbwz0uoPhI7Mcz-61" value="&lt;b&gt;&lt;font style=&quot;font-size: 16px;&quot;&gt;&amp;lt;&amp;lt; include &amp;gt;&amp;gt;&lt;/font&gt;&lt;/b&gt;" style="edgeLabel;html=1;align=center;verticalAlign=middle;resizable=0;points=[];" parent="BVjcmCBbwz0uoPhI7Mcz-58" vertex="1" connectable="0">
          <mxGeometry x="-0.0614" y="-4" relative="1" as="geometry">
            <mxPoint as="offset" />
          </mxGeometry>
        </mxCell>
        <mxCell id="BVjcmCBbwz0uoPhI7Mcz-59" value="" style="endArrow=none;dashed=1;html=1;rounded=0;exitX=0;exitY=0.5;exitDx=0;exitDy=0;entryX=1;entryY=1;entryDx=0;entryDy=0;startArrow=open;startFill=0;" parent="1" source="BVjcmCBbwz0uoPhI7Mcz-57" target="rhURFDJnw8EIfbN3_FGS-71" edge="1">
          <mxGeometry width="50" height="50" relative="1" as="geometry">
            <mxPoint x="62.370000000000005" y="325" as="sourcePoint" />
            <mxPoint x="15.370000000000005" y="338" as="targetPoint" />
          </mxGeometry>
        </mxCell>
        <mxCell id="BVjcmCBbwz0uoPhI7Mcz-62" value="&lt;b style=&quot;border-color: var(--border-color);&quot;&gt;&lt;font style=&quot;border-color: var(--border-color); font-size: 16px;&quot;&gt;&amp;lt;&amp;lt; include &amp;gt;&amp;gt;&lt;/font&gt;&lt;/b&gt;" style="edgeLabel;html=1;align=center;verticalAlign=middle;resizable=0;points=[];" parent="BVjcmCBbwz0uoPhI7Mcz-59" vertex="1" connectable="0">
          <mxGeometry x="-0.0152" y="2" relative="1" as="geometry">
            <mxPoint as="offset" />
          </mxGeometry>
        </mxCell>
        <mxCell id="BVjcmCBbwz0uoPhI7Mcz-63" value="" style="endArrow=none;dashed=1;html=1;rounded=0;exitX=1;exitY=0.5;exitDx=0;exitDy=0;entryX=0;entryY=0;entryDx=0;entryDy=0;startArrow=open;startFill=0;" parent="1" source="BVjcmCBbwz0uoPhI7Mcz-56" target="1z83b8Zoyd066qz08zac-87" edge="1">
          <mxGeometry width="50" height="50" relative="1" as="geometry">
            <mxPoint x="430" y="600" as="sourcePoint" />
            <mxPoint x="480" y="550" as="targetPoint" />
          </mxGeometry>
        </mxCell>
        <mxCell id="BVjcmCBbwz0uoPhI7Mcz-64" value="&lt;b&gt;&lt;font style=&quot;font-size: 16px;&quot;&gt;&amp;lt;&amp;lt; include &amp;gt;&amp;gt;&amp;nbsp;&lt;/font&gt;&lt;/b&gt;" style="edgeLabel;html=1;align=center;verticalAlign=middle;resizable=0;points=[];" parent="BVjcmCBbwz0uoPhI7Mcz-63" vertex="1" connectable="0">
          <mxGeometry x="-0.1426" y="2" relative="1" as="geometry">
            <mxPoint as="offset" />
          </mxGeometry>
        </mxCell>
        <mxCell id="BVjcmCBbwz0uoPhI7Mcz-65" value="" style="endArrow=none;dashed=1;html=1;rounded=0;exitX=1;exitY=0.5;exitDx=0;exitDy=0;entryX=0;entryY=0.5;entryDx=0;entryDy=0;startArrow=open;startFill=0;" parent="1" source="BVjcmCBbwz0uoPhI7Mcz-57" target="rhURFDJnw8EIfbN3_FGS-74" edge="1">
          <mxGeometry width="50" height="50" relative="1" as="geometry">
            <mxPoint x="410" y="680" as="sourcePoint" />
            <mxPoint x="460" y="630" as="targetPoint" />
          </mxGeometry>
        </mxCell>
        <mxCell id="BVjcmCBbwz0uoPhI7Mcz-66" value="&lt;b style=&quot;border-color: var(--border-color);&quot;&gt;&lt;font style=&quot;border-color: var(--border-color); font-size: 16px;&quot;&gt;&amp;lt;&amp;lt; include &amp;gt;&amp;gt;&amp;nbsp;&lt;/font&gt;&lt;/b&gt;" style="edgeLabel;html=1;align=center;verticalAlign=middle;resizable=0;points=[];" parent="BVjcmCBbwz0uoPhI7Mcz-65" vertex="1" connectable="0">
          <mxGeometry x="0.0567" relative="1" as="geometry">
            <mxPoint as="offset" />
          </mxGeometry>
        </mxCell>
        <mxCell id="_hXfsHDAOl1Z4PIqX4aa-5" value="" style="endArrow=open;dashed=1;html=1;rounded=0;exitX=0.5;exitY=1;exitDx=0;exitDy=0;endFill=0;entryX=0.5;entryY=0;entryDx=0;entryDy=0;" parent="1" source="1z83b8Zoyd066qz08zac-49" target="_hXfsHDAOl1Z4PIqX4aa-6" edge="1">
          <mxGeometry width="50" height="50" relative="1" as="geometry">
            <mxPoint x="755" y="-305.78" as="sourcePoint" />
            <mxPoint x="863" y="-305.78" as="targetPoint" />
          </mxGeometry>
        </mxCell>
        <mxCell id="_hXfsHDAOl1Z4PIqX4aa-7" value="&lt;b&gt;&lt;font style=&quot;font-size: 16px;&quot;&gt;&amp;lt;&amp;lt; include &amp;gt;&amp;gt;&lt;/font&gt;&lt;/b&gt;" style="edgeLabel;html=1;align=center;verticalAlign=middle;resizable=0;points=[];" parent="_hXfsHDAOl1Z4PIqX4aa-5" vertex="1" connectable="0">
          <mxGeometry x="-0.1582" relative="1" as="geometry">
            <mxPoint as="offset" />
          </mxGeometry>
        </mxCell>
        <mxCell id="_hXfsHDAOl1Z4PIqX4aa-6" value="Generate Prescrition" style="ellipse;whiteSpace=wrap;html=1;flipH=1;flipV=0;" parent="1" vertex="1">
          <mxGeometry x="450" y="-413.78" width="120" height="40" as="geometry" />
        </mxCell>
        <mxCell id="_hXfsHDAOl1Z4PIqX4aa-11" value="" style="endArrow=open;dashed=1;html=1;rounded=0;exitX=1;exitY=0;exitDx=0;exitDy=0;endFill=0;entryX=1;entryY=1;entryDx=0;entryDy=0;" parent="1" source="rhURFDJnw8EIfbN3_FGS-101" target="1z83b8Zoyd066qz08zac-46" edge="1">
          <mxGeometry width="50" height="50" relative="1" as="geometry">
            <mxPoint x="555" y="-1073" as="sourcePoint" />
            <mxPoint x="480" y="-720" as="targetPoint" />
          </mxGeometry>
        </mxCell>
        <mxCell id="_hXfsHDAOl1Z4PIqX4aa-12" value="&lt;b&gt;&lt;font style=&quot;font-size: 16px;&quot;&gt;&amp;lt;&amp;lt; extend &amp;gt;&amp;gt;&lt;/font&gt;&lt;/b&gt;" style="edgeLabel;html=1;align=center;verticalAlign=middle;resizable=0;points=[];" parent="_hXfsHDAOl1Z4PIqX4aa-11" vertex="1" connectable="0">
          <mxGeometry x="-0.1582" relative="1" as="geometry">
            <mxPoint x="113" y="-59" as="offset" />
          </mxGeometry>
        </mxCell>
        <mxCell id="rhURFDJnw8EIfbN3_FGS-4" value="Access Health Records" style="ellipse;whiteSpace=wrap;html=1;" parent="1" vertex="1">
          <mxGeometry x="-63.13000000000001" y="-770" width="130" height="50" as="geometry" />
        </mxCell>
        <mxCell id="rhURFDJnw8EIfbN3_FGS-5" value="Access Medical History" style="ellipse;whiteSpace=wrap;html=1;" parent="1" vertex="1">
          <mxGeometry x="26.869999999999994" y="-705" width="130" height="50" as="geometry" />
        </mxCell>
        <mxCell id="rhURFDJnw8EIfbN3_FGS-7" value="" style="endArrow=none;dashed=1;html=1;rounded=0;exitX=0.5;exitY=0;exitDx=0;exitDy=0;startArrow=open;startFill=0;entryX=0;entryY=0.5;entryDx=0;entryDy=0;" parent="1" edge="1">
          <mxGeometry width="50" height="50" relative="1" as="geometry">
            <mxPoint x="-178.13" y="-640" as="sourcePoint" />
            <mxPoint x="-63.13000000000001" y="-745" as="targetPoint" />
          </mxGeometry>
        </mxCell>
        <mxCell id="rhURFDJnw8EIfbN3_FGS-8" value="&lt;font style=&quot;font-size: 16px;&quot;&gt;&lt;b&gt;&amp;lt;&amp;lt; extend &amp;gt;&amp;gt;&lt;/b&gt;&lt;/font&gt;" style="edgeLabel;html=1;align=center;verticalAlign=middle;resizable=0;points=[];" parent="rhURFDJnw8EIfbN3_FGS-7" vertex="1" connectable="0">
          <mxGeometry x="0.1992" relative="1" as="geometry">
            <mxPoint as="offset" />
          </mxGeometry>
        </mxCell>
        <mxCell id="rhURFDJnw8EIfbN3_FGS-9" value="" style="endArrow=none;dashed=1;html=1;rounded=0;exitX=1;exitY=0;exitDx=0;exitDy=0;startArrow=open;startFill=0;entryX=0;entryY=0.5;entryDx=0;entryDy=0;" parent="1" source="1z83b8Zoyd066qz08zac-31" target="rhURFDJnw8EIfbN3_FGS-5" edge="1">
          <mxGeometry width="50" height="50" relative="1" as="geometry">
            <mxPoint x="-33.13000000000001" y="-485" as="sourcePoint" />
            <mxPoint x="81.86999999999999" y="-590" as="targetPoint" />
          </mxGeometry>
        </mxCell>
        <mxCell id="rhURFDJnw8EIfbN3_FGS-10" value="&lt;font style=&quot;font-size: 16px;&quot;&gt;&lt;b&gt;&amp;lt;&amp;lt; extend &amp;gt;&amp;gt;&lt;/b&gt;&lt;/font&gt;" style="edgeLabel;html=1;align=center;verticalAlign=middle;resizable=0;points=[];" parent="rhURFDJnw8EIfbN3_FGS-9" vertex="1" connectable="0">
          <mxGeometry x="0.1992" relative="1" as="geometry">
            <mxPoint as="offset" />
          </mxGeometry>
        </mxCell>
        <mxCell id="rhURFDJnw8EIfbN3_FGS-11" value="Request Refill" style="ellipse;whiteSpace=wrap;html=1;" parent="1" vertex="1">
          <mxGeometry x="26.869999999999994" y="-570" width="110" height="40" as="geometry" />
        </mxCell>
        <mxCell id="rhURFDJnw8EIfbN3_FGS-12" value="Request new prescription" style="ellipse;whiteSpace=wrap;html=1;" parent="1" vertex="1">
          <mxGeometry x="6.869999999999994" y="-490" width="110" height="40" as="geometry" />
        </mxCell>
        <mxCell id="rhURFDJnw8EIfbN3_FGS-13" value="" style="endArrow=none;dashed=1;html=1;rounded=0;exitX=1;exitY=0;exitDx=0;exitDy=0;startArrow=open;startFill=0;entryX=0;entryY=0.5;entryDx=0;entryDy=0;" parent="1" source="1z83b8Zoyd066qz08zac-32" target="rhURFDJnw8EIfbN3_FGS-11" edge="1">
          <mxGeometry width="50" height="50" relative="1" as="geometry">
            <mxPoint x="-122.13000000000001" y="-623" as="sourcePoint" />
            <mxPoint x="36.86999999999999" y="-670" as="targetPoint" />
          </mxGeometry>
        </mxCell>
        <mxCell id="rhURFDJnw8EIfbN3_FGS-14" value="&lt;font style=&quot;font-size: 16px;&quot;&gt;&lt;b&gt;&amp;lt;&amp;lt; extend &amp;gt;&amp;gt;&lt;/b&gt;&lt;/font&gt;" style="edgeLabel;html=1;align=center;verticalAlign=middle;resizable=0;points=[];" parent="rhURFDJnw8EIfbN3_FGS-13" vertex="1" connectable="0">
          <mxGeometry x="0.1992" relative="1" as="geometry">
            <mxPoint x="-5" y="-7" as="offset" />
          </mxGeometry>
        </mxCell>
        <mxCell id="rhURFDJnw8EIfbN3_FGS-15" value="" style="endArrow=none;dashed=1;html=1;rounded=0;exitX=1;exitY=1;exitDx=0;exitDy=0;startArrow=open;startFill=0;entryX=0;entryY=0.5;entryDx=0;entryDy=0;" parent="1" source="1z83b8Zoyd066qz08zac-32" target="rhURFDJnw8EIfbN3_FGS-12" edge="1">
          <mxGeometry width="50" height="50" relative="1" as="geometry">
            <mxPoint x="-126.13000000000001" y="-548" as="sourcePoint" />
            <mxPoint x="-13.130000000000006" y="-540" as="targetPoint" />
          </mxGeometry>
        </mxCell>
        <mxCell id="rhURFDJnw8EIfbN3_FGS-16" value="&lt;font style=&quot;font-size: 16px;&quot;&gt;&lt;b&gt;&amp;lt;&amp;lt; extend &amp;gt;&amp;gt;&lt;/b&gt;&lt;/font&gt;" style="edgeLabel;html=1;align=center;verticalAlign=middle;resizable=0;points=[];" parent="rhURFDJnw8EIfbN3_FGS-15" vertex="1" connectable="0">
          <mxGeometry x="0.1992" relative="1" as="geometry">
            <mxPoint x="-5" as="offset" />
          </mxGeometry>
        </mxCell>
        <mxCell id="rhURFDJnw8EIfbN3_FGS-18" value="&lt;span style=&quot;background-color: rgb(255, 255, 255);&quot;&gt;Request appointment&lt;/span&gt;" style="ellipse;whiteSpace=wrap;html=1;" parent="1" vertex="1">
          <mxGeometry x="60.61999999999999" y="-285" width="110" height="40" as="geometry" />
        </mxCell>
        <mxCell id="rhURFDJnw8EIfbN3_FGS-19" value="Cancel appointment" style="ellipse;whiteSpace=wrap;html=1;" parent="1" vertex="1">
          <mxGeometry x="60.61999999999999" y="-75" width="110" height="40" as="geometry" />
        </mxCell>
        <mxCell id="rhURFDJnw8EIfbN3_FGS-20" value="Schedule appointment" style="ellipse;whiteSpace=wrap;html=1;" parent="1" vertex="1">
          <mxGeometry x="60.61999999999999" y="-215" width="110" height="40" as="geometry" />
        </mxCell>
        <mxCell id="rhURFDJnw8EIfbN3_FGS-21" value="Reschedule appointment" style="ellipse;whiteSpace=wrap;html=1;" parent="1" vertex="1">
          <mxGeometry x="60.61999999999999" y="-145" width="110" height="40" as="geometry" />
        </mxCell>
        <mxCell id="rhURFDJnw8EIfbN3_FGS-24" value="" style="endArrow=none;dashed=1;html=1;rounded=0;exitX=1;exitY=0.5;exitDx=0;exitDy=0;startArrow=open;startFill=0;entryX=0;entryY=0.5;entryDx=0;entryDy=0;" parent="1" source="1z83b8Zoyd066qz08zac-30" target="rhURFDJnw8EIfbN3_FGS-18" edge="1">
          <mxGeometry width="50" height="50" relative="1" as="geometry">
            <mxPoint x="457.87" y="-643" as="sourcePoint" />
            <mxPoint x="616.8699999999999" y="-690" as="targetPoint" />
          </mxGeometry>
        </mxCell>
        <mxCell id="rhURFDJnw8EIfbN3_FGS-25" value="&lt;font style=&quot;font-size: 16px;&quot;&gt;&lt;b&gt;&amp;lt;&amp;lt; extend &amp;gt;&amp;gt;&lt;/b&gt;&lt;/font&gt;" style="edgeLabel;html=1;align=center;verticalAlign=middle;resizable=0;points=[];" parent="rhURFDJnw8EIfbN3_FGS-24" vertex="1" connectable="0">
          <mxGeometry x="0.1992" relative="1" as="geometry">
            <mxPoint x="-24" y="3" as="offset" />
          </mxGeometry>
        </mxCell>
        <mxCell id="rhURFDJnw8EIfbN3_FGS-32" value="Review insurance claims and payment" style="ellipse;whiteSpace=wrap;html=1;" parent="1" vertex="1">
          <mxGeometry x="-73.13000000000001" y="-447.5" width="130" height="62.5" as="geometry" />
        </mxCell>
        <mxCell id="rhURFDJnw8EIfbN3_FGS-36" value="Access billing statement" style="ellipse;whiteSpace=wrap;html=1;" parent="1" vertex="1">
          <mxGeometry x="-203.13" y="-347.5" width="120" height="40" as="geometry" />
        </mxCell>
        <mxCell id="rhURFDJnw8EIfbN3_FGS-38" value="" style="endArrow=none;dashed=1;html=1;rounded=0;exitX=0.5;exitY=1;exitDx=0;exitDy=0;startArrow=open;startFill=0;entryX=0;entryY=0;entryDx=0;entryDy=0;" parent="1" source="1z83b8Zoyd066qz08zac-33" target="rhURFDJnw8EIfbN3_FGS-36" edge="1">
          <mxGeometry width="50" height="50" relative="1" as="geometry">
            <mxPoint x="-300.13" y="-384" as="sourcePoint" />
            <mxPoint x="-316.13" y="-260" as="targetPoint" />
          </mxGeometry>
        </mxCell>
        <mxCell id="rhURFDJnw8EIfbN3_FGS-39" value="&lt;font style=&quot;font-size: 16px;&quot;&gt;&lt;b&gt;&amp;lt;&amp;lt; extend &amp;gt;&amp;gt;&lt;/b&gt;&lt;/font&gt;" style="edgeLabel;html=1;align=center;verticalAlign=middle;resizable=0;points=[];" parent="rhURFDJnw8EIfbN3_FGS-38" vertex="1" connectable="0">
          <mxGeometry x="0.1992" relative="1" as="geometry">
            <mxPoint as="offset" />
          </mxGeometry>
        </mxCell>
        <mxCell id="rhURFDJnw8EIfbN3_FGS-40" value="" style="endArrow=none;dashed=1;html=1;rounded=0;exitX=1;exitY=0.5;exitDx=0;exitDy=0;startArrow=open;startFill=0;entryX=0;entryY=0.5;entryDx=0;entryDy=0;" parent="1" source="1z83b8Zoyd066qz08zac-33" target="rhURFDJnw8EIfbN3_FGS-32" edge="1">
          <mxGeometry width="50" height="50" relative="1" as="geometry">
            <mxPoint x="-288.13" y="-160" as="sourcePoint" />
            <mxPoint x="-235.13" y="-104" as="targetPoint" />
          </mxGeometry>
        </mxCell>
        <mxCell id="rhURFDJnw8EIfbN3_FGS-41" value="&lt;font style=&quot;font-size: 16px;&quot;&gt;&lt;b&gt;&amp;lt;&amp;lt; extend &amp;gt;&amp;gt;&lt;/b&gt;&lt;/font&gt;" style="edgeLabel;html=1;align=center;verticalAlign=middle;resizable=0;points=[];" parent="rhURFDJnw8EIfbN3_FGS-40" vertex="1" connectable="0">
          <mxGeometry x="0.1992" relative="1" as="geometry">
            <mxPoint x="-16" y="4" as="offset" />
          </mxGeometry>
        </mxCell>
        <mxCell id="rhURFDJnw8EIfbN3_FGS-46" value="Update Records" style="ellipse;whiteSpace=wrap;html=1;flipH=0;flipV=0;" parent="1" vertex="1">
          <mxGeometry x="570" y="-730" width="120" height="40" as="geometry" />
        </mxCell>
        <mxCell id="rhURFDJnw8EIfbN3_FGS-49" value="" style="endArrow=open;dashed=1;html=1;rounded=0;exitX=0.5;exitY=1;exitDx=0;exitDy=0;endFill=0;entryX=0.5;entryY=0;entryDx=0;entryDy=0;" parent="1" source="rhURFDJnw8EIfbN3_FGS-46" target="1z83b8Zoyd066qz08zac-45" edge="1">
          <mxGeometry width="50" height="50" relative="1" as="geometry">
            <mxPoint x="1070" y="-405.78" as="sourcePoint" />
            <mxPoint x="987" y="-410.78" as="targetPoint" />
          </mxGeometry>
        </mxCell>
        <mxCell id="rhURFDJnw8EIfbN3_FGS-50" value="&lt;b&gt;&lt;font style=&quot;font-size: 16px;&quot;&gt;&amp;lt;&amp;lt; extend &amp;gt;&amp;gt;&lt;/font&gt;&lt;/b&gt;" style="edgeLabel;html=1;align=center;verticalAlign=middle;resizable=0;points=[];" parent="rhURFDJnw8EIfbN3_FGS-49" vertex="1" connectable="0">
          <mxGeometry x="-0.1582" relative="1" as="geometry">
            <mxPoint as="offset" />
          </mxGeometry>
        </mxCell>
        <mxCell id="rhURFDJnw8EIfbN3_FGS-56" value="Receive and Review Tests Results" style="ellipse;whiteSpace=wrap;html=1;flipH=1;flipV=0;" parent="1" vertex="1">
          <mxGeometry x="510" y="-283.78" width="140" height="40" as="geometry" />
        </mxCell>
        <mxCell id="rhURFDJnw8EIfbN3_FGS-59" value="" style="endArrow=open;dashed=1;html=1;rounded=0;exitX=0.577;exitY=0.063;exitDx=0;exitDy=0;endFill=0;entryX=0.5;entryY=1;entryDx=0;entryDy=0;exitPerimeter=0;" parent="1" source="rhURFDJnw8EIfbN3_FGS-56" target="1z83b8Zoyd066qz08zac-48" edge="1">
          <mxGeometry width="50" height="50" relative="1" as="geometry">
            <mxPoint x="1030" y="-245.78" as="sourcePoint" />
            <mxPoint x="955" y="-295.78" as="targetPoint" />
          </mxGeometry>
        </mxCell>
        <mxCell id="rhURFDJnw8EIfbN3_FGS-60" value="&lt;b&gt;&lt;font style=&quot;font-size: 16px;&quot;&gt;&amp;lt;&amp;lt; extend &amp;gt;&amp;gt;&lt;/font&gt;&lt;/b&gt;" style="edgeLabel;html=1;align=center;verticalAlign=middle;resizable=0;points=[];" parent="rhURFDJnw8EIfbN3_FGS-59" vertex="1" connectable="0">
          <mxGeometry x="-0.1582" relative="1" as="geometry">
            <mxPoint as="offset" />
          </mxGeometry>
        </mxCell>
        <mxCell id="rhURFDJnw8EIfbN3_FGS-65" value="Set up alerts" style="ellipse;whiteSpace=wrap;html=1;flipV=0;flipH=0;direction=east;" parent="1" vertex="1">
          <mxGeometry x="-333.55" y="630" width="115" height="45" as="geometry" />
        </mxCell>
        <mxCell id="rhURFDJnw8EIfbN3_FGS-66" value="" style="endArrow=none;dashed=1;html=1;rounded=0;exitX=0.5;exitY=1;exitDx=0;exitDy=0;entryX=0;entryY=0.5;entryDx=0;entryDy=0;startArrow=open;startFill=0;" parent="1" source="1z83b8Zoyd066qz08zac-60" target="rhURFDJnw8EIfbN3_FGS-65" edge="1">
          <mxGeometry width="50" height="50" relative="1" as="geometry">
            <mxPoint x="-197.63" y="260" as="sourcePoint" />
            <mxPoint x="-133.63" y="178" as="targetPoint" />
          </mxGeometry>
        </mxCell>
        <mxCell id="rhURFDJnw8EIfbN3_FGS-67" value="&lt;font style=&quot;font-size: 16px;&quot;&gt;&lt;b&gt;&amp;lt;&amp;lt; extend &amp;gt;&amp;gt;&lt;/b&gt;&lt;/font&gt;" style="edgeLabel;html=1;align=center;verticalAlign=middle;resizable=0;points=[];" parent="rhURFDJnw8EIfbN3_FGS-66" vertex="1" connectable="0">
          <mxGeometry x="0.1992" relative="1" as="geometry">
            <mxPoint as="offset" />
          </mxGeometry>
        </mxCell>
        <mxCell id="rhURFDJnw8EIfbN3_FGS-68" value="Record treatment" style="ellipse;whiteSpace=wrap;html=1;flipV=0;flipH=0;direction=east;" parent="1" vertex="1">
          <mxGeometry x="-168.55" y="640" width="115" height="45" as="geometry" />
        </mxCell>
        <mxCell id="rhURFDJnw8EIfbN3_FGS-69" value="" style="endArrow=none;dashed=1;html=1;rounded=0;exitX=0.5;exitY=0;exitDx=0;exitDy=0;entryX=1;entryY=1;entryDx=0;entryDy=0;startArrow=open;startFill=0;" parent="1" source="rhURFDJnw8EIfbN3_FGS-68" target="1z83b8Zoyd066qz08zac-59" edge="1">
          <mxGeometry width="50" height="50" relative="1" as="geometry">
            <mxPoint x="-237.63" y="484" as="sourcePoint" />
            <mxPoint x="-119.63" y="555" as="targetPoint" />
          </mxGeometry>
        </mxCell>
        <mxCell id="rhURFDJnw8EIfbN3_FGS-70" value="&lt;font style=&quot;font-size: 16px;&quot;&gt;&lt;b&gt;&amp;lt;&amp;lt; include &amp;gt;&amp;gt;&lt;/b&gt;&lt;/font&gt;" style="edgeLabel;html=1;align=center;verticalAlign=middle;resizable=0;points=[];" parent="rhURFDJnw8EIfbN3_FGS-69" vertex="1" connectable="0">
          <mxGeometry x="0.1992" relative="1" as="geometry">
            <mxPoint as="offset" />
          </mxGeometry>
        </mxCell>
        <mxCell id="rhURFDJnw8EIfbN3_FGS-71" value="Patien Discharge" style="ellipse;whiteSpace=wrap;html=1;flipV=0;flipH=0;direction=east;" parent="1" vertex="1">
          <mxGeometry x="-328.55" y="367.5" width="120" height="50" as="geometry" />
        </mxCell>
        <mxCell id="rhURFDJnw8EIfbN3_FGS-73" value="" style="endArrow=none;html=1;rounded=0;exitX=0;exitY=0.5;exitDx=0;exitDy=0;entryX=0;entryY=0.3333333333333333;entryDx=0;entryDy=0;entryPerimeter=0;" parent="1" source="rhURFDJnw8EIfbN3_FGS-71" target="1z83b8Zoyd066qz08zac-17" edge="1">
          <mxGeometry width="50" height="50" relative="1" as="geometry">
            <mxPoint x="-269.63" y="315" as="sourcePoint" />
            <mxPoint x="-357.63" y="330" as="targetPoint" />
          </mxGeometry>
        </mxCell>
        <mxCell id="rhURFDJnw8EIfbN3_FGS-74" value="Patient check-out" style="ellipse;whiteSpace=wrap;html=1;" parent="1" vertex="1">
          <mxGeometry x="440" y="685" width="140" height="60" as="geometry" />
        </mxCell>
        <mxCell id="rhURFDJnw8EIfbN3_FGS-75" value="" style="endArrow=none;html=1;rounded=0;entryX=1;entryY=0.5;entryDx=0;entryDy=0;exitX=0;exitY=0.3333333333333333;exitDx=0;exitDy=0;exitPerimeter=0;" parent="1" source="1z83b8Zoyd066qz08zac-16" target="rhURFDJnw8EIfbN3_FGS-74" edge="1">
          <mxGeometry width="50" height="50" relative="1" as="geometry">
            <mxPoint x="883.3333333333334" y="320" as="sourcePoint" />
            <mxPoint x="680" y="470" as="targetPoint" />
          </mxGeometry>
        </mxCell>
        <mxCell id="rhURFDJnw8EIfbN3_FGS-78" value="Control user access" style="ellipse;whiteSpace=wrap;html=1;" parent="1" vertex="1">
          <mxGeometry x="500" y="1139" width="140" height="60" as="geometry" />
        </mxCell>
        <mxCell id="rhURFDJnw8EIfbN3_FGS-79" value="Assign roles to staff" style="ellipse;whiteSpace=wrap;html=1;" parent="1" vertex="1">
          <mxGeometry x="510" y="1246.5" width="140" height="60" as="geometry" />
        </mxCell>
        <mxCell id="rhURFDJnw8EIfbN3_FGS-80" value="" style="endArrow=open;dashed=1;html=1;rounded=0;entryX=0;entryY=0;entryDx=0;entryDy=0;startArrow=none;startFill=0;endFill=0;exitX=1;exitY=0.5;exitDx=0;exitDy=0;" parent="1" source="rhURFDJnw8EIfbN3_FGS-78" target="1z83b8Zoyd066qz08zac-65" edge="1">
          <mxGeometry width="50" height="50" relative="1" as="geometry">
            <mxPoint x="533" y="1230" as="sourcePoint" />
            <mxPoint x="619" y="1417" as="targetPoint" />
          </mxGeometry>
        </mxCell>
        <mxCell id="rhURFDJnw8EIfbN3_FGS-81" value="&lt;b&gt;&lt;font style=&quot;font-size: 16px;&quot;&gt;&amp;lt;&amp;lt; include &amp;gt;&amp;gt;&lt;/font&gt;&lt;/b&gt;" style="edgeLabel;html=1;align=center;verticalAlign=middle;resizable=0;points=[];" parent="rhURFDJnw8EIfbN3_FGS-80" vertex="1" connectable="0">
          <mxGeometry x="-0.0519" y="-2" relative="1" as="geometry">
            <mxPoint x="-10" y="-6" as="offset" />
          </mxGeometry>
        </mxCell>
        <mxCell id="rhURFDJnw8EIfbN3_FGS-82" value="" style="endArrow=open;dashed=1;html=1;rounded=0;exitX=1;exitY=0.5;exitDx=0;exitDy=0;entryX=0;entryY=1;entryDx=0;entryDy=0;startArrow=none;startFill=0;endFill=0;" parent="1" source="rhURFDJnw8EIfbN3_FGS-79" target="1z83b8Zoyd066qz08zac-65" edge="1">
          <mxGeometry width="50" height="50" relative="1" as="geometry">
            <mxPoint x="534" y="1489" as="sourcePoint" />
            <mxPoint x="629" y="1427" as="targetPoint" />
          </mxGeometry>
        </mxCell>
        <mxCell id="rhURFDJnw8EIfbN3_FGS-83" value="&lt;b style=&quot;border-color: var(--border-color);&quot;&gt;&lt;font style=&quot;border-color: var(--border-color); font-size: 16px;&quot;&gt;&amp;lt;&amp;lt; include &amp;gt;&amp;gt;&lt;/font&gt;&lt;/b&gt;" style="edgeLabel;html=1;align=center;verticalAlign=middle;resizable=0;points=[];" parent="rhURFDJnw8EIfbN3_FGS-82" vertex="1" connectable="0">
          <mxGeometry x="-0.0519" y="-2" relative="1" as="geometry">
            <mxPoint y="1" as="offset" />
          </mxGeometry>
        </mxCell>
        <mxCell id="rhURFDJnw8EIfbN3_FGS-84" value="Training" style="ellipse;whiteSpace=wrap;html=1;" parent="1" vertex="1">
          <mxGeometry x="550" y="1467.5" width="140" height="60" as="geometry" />
        </mxCell>
        <mxCell id="rhURFDJnw8EIfbN3_FGS-85" value="Scheduling" style="ellipse;whiteSpace=wrap;html=1;" parent="1" vertex="1">
          <mxGeometry x="670" y="1527.5" width="140" height="60" as="geometry" />
        </mxCell>
        <mxCell id="rhURFDJnw8EIfbN3_FGS-87" value="" style="endArrow=open;dashed=1;html=1;rounded=0;exitX=1;exitY=0;exitDx=0;exitDy=0;entryX=0;entryY=1;entryDx=0;entryDy=0;startArrow=none;startFill=0;endFill=0;" parent="1" source="rhURFDJnw8EIfbN3_FGS-84" target="1z83b8Zoyd066qz08zac-66" edge="1">
          <mxGeometry width="50" height="50" relative="1" as="geometry">
            <mxPoint x="487" y="1435" as="sourcePoint" />
            <mxPoint x="619" y="1417" as="targetPoint" />
          </mxGeometry>
        </mxCell>
        <mxCell id="rhURFDJnw8EIfbN3_FGS-88" value="&lt;b&gt;&lt;font style=&quot;font-size: 16px;&quot;&gt;&amp;lt;&amp;lt; extend &amp;gt;&amp;gt;&lt;/font&gt;&lt;/b&gt;" style="edgeLabel;html=1;align=center;verticalAlign=middle;resizable=0;points=[];" parent="rhURFDJnw8EIfbN3_FGS-87" vertex="1" connectable="0">
          <mxGeometry x="-0.0519" y="-2" relative="1" as="geometry">
            <mxPoint y="1" as="offset" />
          </mxGeometry>
        </mxCell>
        <mxCell id="rhURFDJnw8EIfbN3_FGS-89" value="" style="endArrow=open;dashed=1;html=1;rounded=0;exitX=0.5;exitY=0;exitDx=0;exitDy=0;entryX=0.5;entryY=1;entryDx=0;entryDy=0;startArrow=none;startFill=0;endFill=0;" parent="1" source="rhURFDJnw8EIfbN3_FGS-85" target="1z83b8Zoyd066qz08zac-66" edge="1">
          <mxGeometry width="50" height="50" relative="1" as="geometry">
            <mxPoint x="513" y="1508" as="sourcePoint" />
            <mxPoint x="640" y="1438" as="targetPoint" />
          </mxGeometry>
        </mxCell>
        <mxCell id="rhURFDJnw8EIfbN3_FGS-90" value="&lt;b&gt;&lt;font style=&quot;font-size: 16px;&quot;&gt;&amp;lt;&amp;lt; extend &amp;gt;&amp;gt;&lt;/font&gt;&lt;/b&gt;" style="edgeLabel;html=1;align=center;verticalAlign=middle;resizable=0;points=[];" parent="rhURFDJnw8EIfbN3_FGS-89" vertex="1" connectable="0">
          <mxGeometry x="-0.0519" y="-2" relative="1" as="geometry">
            <mxPoint y="1" as="offset" />
          </mxGeometry>
        </mxCell>
        <mxCell id="rhURFDJnw8EIfbN3_FGS-91" value="Inventory Management" style="ellipse;whiteSpace=wrap;html=1;" parent="1" vertex="1">
          <mxGeometry x="-177.37" y="1011" width="140" height="60" as="geometry" />
        </mxCell>
        <mxCell id="rhURFDJnw8EIfbN3_FGS-92" value="" style="endArrow=open;dashed=1;html=1;rounded=0;exitX=0;exitY=0;exitDx=0;exitDy=0;entryX=1;entryY=1;entryDx=0;entryDy=0;startArrow=none;startFill=0;endFill=0;" parent="1" source="rhURFDJnw8EIfbN3_FGS-91" target="1z83b8Zoyd066qz08zac-95" edge="1">
          <mxGeometry width="50" height="50" relative="1" as="geometry">
            <mxPoint x="-117.5" y="1205" as="sourcePoint" />
            <mxPoint x="7.5" y="1135" as="targetPoint" />
          </mxGeometry>
        </mxCell>
        <mxCell id="rhURFDJnw8EIfbN3_FGS-93" value="&lt;b&gt;&lt;font style=&quot;font-size: 16px;&quot;&gt;&amp;lt;&amp;lt; extend &amp;gt;&amp;gt;&lt;/font&gt;&lt;/b&gt;" style="edgeLabel;html=1;align=center;verticalAlign=middle;resizable=0;points=[];" parent="rhURFDJnw8EIfbN3_FGS-92" vertex="1" connectable="0">
          <mxGeometry x="-0.0519" y="-2" relative="1" as="geometry">
            <mxPoint y="1" as="offset" />
          </mxGeometry>
        </mxCell>
        <mxCell id="rhURFDJnw8EIfbN3_FGS-94" value="Offering accurate information of medications" style="ellipse;whiteSpace=wrap;html=1;" parent="1" vertex="1">
          <mxGeometry x="-358.55" y="1156.5" width="140" height="60" as="geometry" />
        </mxCell>
        <mxCell id="rhURFDJnw8EIfbN3_FGS-97" value="" style="endArrow=open;dashed=1;html=1;rounded=0;exitX=0.5;exitY=1;exitDx=0;exitDy=0;endFill=0;entryX=0;entryY=0.5;entryDx=0;entryDy=0;" parent="1" source="1z83b8Zoyd066qz08zac-96" target="rhURFDJnw8EIfbN3_FGS-94" edge="1">
          <mxGeometry width="50" height="50" relative="1" as="geometry">
            <mxPoint x="-205" y="1250" as="sourcePoint" />
            <mxPoint x="-195" y="1300" as="targetPoint" />
          </mxGeometry>
        </mxCell>
        <mxCell id="rhURFDJnw8EIfbN3_FGS-98" value="&lt;b&gt;&lt;font style=&quot;font-size: 16px;&quot;&gt;&amp;lt;&amp;lt; include &amp;gt;&amp;gt;&lt;/font&gt;&lt;/b&gt;" style="edgeLabel;html=1;align=center;verticalAlign=middle;resizable=0;points=[];" parent="rhURFDJnw8EIfbN3_FGS-97" vertex="1" connectable="0">
          <mxGeometry x="-0.1582" relative="1" as="geometry">
            <mxPoint as="offset" />
          </mxGeometry>
        </mxCell>
        <mxCell id="rhURFDJnw8EIfbN3_FGS-101" value="Create new appointment" style="ellipse;whiteSpace=wrap;html=1;" parent="1" vertex="1">
          <mxGeometry x="56.86999999999999" y="10" width="117.5" height="40" as="geometry" />
        </mxCell>
        <mxCell id="rhURFDJnw8EIfbN3_FGS-102" value="" style="endArrow=none;dashed=1;html=1;rounded=0;exitX=0;exitY=0.5;exitDx=0;exitDy=0;entryX=1;entryY=0.5;entryDx=0;entryDy=0;startArrow=open;startFill=0;" parent="1" source="1z83b8Zoyd066qz08zac-86" target="rhURFDJnw8EIfbN3_FGS-101" edge="1">
          <mxGeometry width="50" height="50" relative="1" as="geometry">
            <mxPoint x="432" y="785" as="sourcePoint" />
            <mxPoint x="470" y="903" as="targetPoint" />
          </mxGeometry>
        </mxCell>
        <mxCell id="rhURFDJnw8EIfbN3_FGS-103" value="&lt;font style=&quot;font-size: 16px;&quot;&gt;&lt;b&gt;&amp;lt;&amp;lt; extend &amp;gt;&amp;gt;&lt;/b&gt;&lt;/font&gt;" style="edgeLabel;html=1;align=center;verticalAlign=middle;resizable=0;points=[];" parent="rhURFDJnw8EIfbN3_FGS-102" vertex="1" connectable="0">
          <mxGeometry x="0.1992" relative="1" as="geometry">
            <mxPoint as="offset" />
          </mxGeometry>
        </mxCell>
        <mxCell id="rhURFDJnw8EIfbN3_FGS-108" value="Provide billing inofrmation and issue receipts" style="ellipse;whiteSpace=wrap;html=1;" parent="1" vertex="1">
          <mxGeometry x="380" y="140" width="140" height="60" as="geometry" />
        </mxCell>
        <mxCell id="rhURFDJnw8EIfbN3_FGS-109" value="" style="endArrow=none;dashed=1;html=1;rounded=0;exitX=0.5;exitY=1;exitDx=0;exitDy=0;entryX=0;entryY=0;entryDx=0;entryDy=0;startArrow=open;startFill=0;" parent="1" source="rhURFDJnw8EIfbN3_FGS-108" target="1z83b8Zoyd066qz08zac-89" edge="1">
          <mxGeometry width="50" height="50" relative="1" as="geometry">
            <mxPoint x="418.5" y="390" as="sourcePoint" />
            <mxPoint x="358.5" y="294" as="targetPoint" />
          </mxGeometry>
        </mxCell>
        <mxCell id="rhURFDJnw8EIfbN3_FGS-110" value="&lt;b&gt;&lt;font style=&quot;font-size: 16px;&quot;&gt;&amp;lt;&amp;lt; include &amp;gt;&amp;gt;&amp;nbsp;&lt;/font&gt;&lt;/b&gt;" style="edgeLabel;html=1;align=center;verticalAlign=middle;resizable=0;points=[];" parent="rhURFDJnw8EIfbN3_FGS-109" vertex="1" connectable="0">
          <mxGeometry x="-0.1426" y="2" relative="1" as="geometry">
            <mxPoint as="offset" />
          </mxGeometry>
        </mxCell>
        <mxCell id="rhURFDJnw8EIfbN3_FGS-111" value="Update contact information" style="ellipse;whiteSpace=wrap;html=1;" parent="1" vertex="1">
          <mxGeometry x="594" y="685" width="133" height="60" as="geometry" />
        </mxCell>
        <mxCell id="rhURFDJnw8EIfbN3_FGS-112" value="" style="endArrow=none;dashed=1;html=1;rounded=0;exitX=0.5;exitY=1;exitDx=0;exitDy=0;entryX=1;entryY=0;entryDx=0;entryDy=0;startArrow=open;startFill=0;" parent="1" source="1z83b8Zoyd066qz08zac-90" target="rhURFDJnw8EIfbN3_FGS-111" edge="1">
          <mxGeometry width="50" height="50" relative="1" as="geometry">
            <mxPoint x="809" y="660.5" as="sourcePoint" />
            <mxPoint x="870" y="779.5" as="targetPoint" />
          </mxGeometry>
        </mxCell>
        <mxCell id="rhURFDJnw8EIfbN3_FGS-113" value="&lt;font style=&quot;font-size: 16px;&quot;&gt;&lt;b&gt;&amp;lt;&amp;lt; extend &amp;gt;&amp;gt;&lt;/b&gt;&lt;/font&gt;" style="edgeLabel;html=1;align=center;verticalAlign=middle;resizable=0;points=[];" parent="rhURFDJnw8EIfbN3_FGS-112" vertex="1" connectable="0">
          <mxGeometry x="0.1992" relative="1" as="geometry">
            <mxPoint as="offset" />
          </mxGeometry>
        </mxCell>
        <mxCell id="rhURFDJnw8EIfbN3_FGS-115" value="Record test data" style="ellipse;whiteSpace=wrap;html=1;flipH=0;flipV=1;direction=west;" parent="1" vertex="1">
          <mxGeometry x="390" y="871" width="140" height="60" as="geometry" />
        </mxCell>
        <mxCell id="rhURFDJnw8EIfbN3_FGS-116" value="" style="endArrow=none;dashed=1;html=1;rounded=0;exitX=0;exitY=0.5;exitDx=0;exitDy=0;entryX=1;entryY=0.5;entryDx=0;entryDy=0;startArrow=open;startFill=0;" parent="1" source="rhURFDJnw8EIfbN3_FGS-115" target="1z83b8Zoyd066qz08zac-78" edge="1">
          <mxGeometry width="50" height="50" relative="1" as="geometry">
            <mxPoint x="450" y="855" as="sourcePoint" />
            <mxPoint x="506" y="815" as="targetPoint" />
          </mxGeometry>
        </mxCell>
        <mxCell id="rhURFDJnw8EIfbN3_FGS-117" value="&lt;b style=&quot;border-color: var(--border-color);&quot;&gt;&lt;font style=&quot;border-color: var(--border-color); font-size: 16px;&quot;&gt;&amp;lt;&amp;lt; include &amp;gt;&amp;gt;&amp;nbsp;&lt;/font&gt;&lt;/b&gt;" style="edgeLabel;html=1;align=center;verticalAlign=middle;resizable=0;points=[];" parent="rhURFDJnw8EIfbN3_FGS-116" vertex="1" connectable="0">
          <mxGeometry x="0.0567" relative="1" as="geometry">
            <mxPoint as="offset" />
          </mxGeometry>
        </mxCell>
        <mxCell id="rhURFDJnw8EIfbN3_FGS-119" value="Report instrument issues" style="ellipse;whiteSpace=wrap;html=1;flipH=1;direction=west;" parent="1" vertex="1">
          <mxGeometry x="450" y="1040" width="140" height="60" as="geometry" />
        </mxCell>
        <mxCell id="rhURFDJnw8EIfbN3_FGS-120" value="" style="endArrow=none;dashed=1;html=1;rounded=0;exitX=1;exitY=0.5;exitDx=0;exitDy=0;entryX=0;entryY=0.5;entryDx=0;entryDy=0;startArrow=open;startFill=0;" parent="1" source="1z83b8Zoyd066qz08zac-79" target="rhURFDJnw8EIfbN3_FGS-119" edge="1">
          <mxGeometry width="50" height="50" relative="1" as="geometry">
            <mxPoint x="539" y="995" as="sourcePoint" />
            <mxPoint x="600" y="1114" as="targetPoint" />
          </mxGeometry>
        </mxCell>
        <mxCell id="rhURFDJnw8EIfbN3_FGS-121" value="&lt;font style=&quot;font-size: 16px;&quot;&gt;&lt;b&gt;&amp;lt;&amp;lt; extend &amp;gt;&amp;gt;&lt;/b&gt;&lt;/font&gt;" style="edgeLabel;html=1;align=center;verticalAlign=middle;resizable=0;points=[];" parent="rhURFDJnw8EIfbN3_FGS-120" vertex="1" connectable="0">
          <mxGeometry x="0.1992" relative="1" as="geometry">
            <mxPoint as="offset" />
          </mxGeometry>
        </mxCell>
        <mxCell id="rhURFDJnw8EIfbN3_FGS-122" value="Modify Account" style="ellipse;whiteSpace=wrap;html=1;flipH=1;" parent="1" vertex="1">
          <mxGeometry x="-115.87" y="1181.5" width="117" height="35" as="geometry" />
        </mxCell>
        <mxCell id="rhURFDJnw8EIfbN3_FGS-123" value="Delete account" style="ellipse;whiteSpace=wrap;html=1;" parent="1" vertex="1">
          <mxGeometry x="-119.37" y="1469" width="117" height="35" as="geometry" />
        </mxCell>
        <mxCell id="rhURFDJnw8EIfbN3_FGS-124" value="" style="endArrow=open;dashed=1;html=1;rounded=0;exitX=0.5;exitY=1;exitDx=0;exitDy=0;entryX=0.5;entryY=0;entryDx=0;entryDy=0;endFill=0;" parent="1" source="rhURFDJnw8EIfbN3_FGS-122" target="1z83b8Zoyd066qz08zac-72" edge="1">
          <mxGeometry width="50" height="50" relative="1" as="geometry">
            <mxPoint x="-88.63" y="1315.5" as="sourcePoint" />
            <mxPoint x="14.370000000000001" y="1392.5" as="targetPoint" />
          </mxGeometry>
        </mxCell>
        <mxCell id="rhURFDJnw8EIfbN3_FGS-125" value="&lt;b&gt;&lt;font style=&quot;font-size: 16px;&quot;&gt;&amp;lt;&amp;lt; extended &amp;gt;&amp;gt;&lt;/font&gt;&lt;/b&gt;" style="edgeLabel;html=1;align=center;verticalAlign=middle;resizable=0;points=[];" parent="rhURFDJnw8EIfbN3_FGS-124" vertex="1" connectable="0">
          <mxGeometry x="0.1012" y="1" relative="1" as="geometry">
            <mxPoint x="-9" y="-2" as="offset" />
          </mxGeometry>
        </mxCell>
        <mxCell id="rhURFDJnw8EIfbN3_FGS-126" value="" style="endArrow=open;dashed=1;html=1;rounded=0;exitX=0;exitY=0;exitDx=0;exitDy=0;entryX=0.5;entryY=1;entryDx=0;entryDy=0;endFill=0;" parent="1" source="rhURFDJnw8EIfbN3_FGS-123" target="1z83b8Zoyd066qz08zac-72" edge="1">
          <mxGeometry width="50" height="50" relative="1" as="geometry">
            <mxPoint x="-155.63" y="1410.5" as="sourcePoint" />
            <mxPoint x="14.370000000000001" y="1392.5" as="targetPoint" />
          </mxGeometry>
        </mxCell>
        <mxCell id="rhURFDJnw8EIfbN3_FGS-127" value="&lt;b&gt;&lt;font style=&quot;font-size: 16px;&quot;&gt;&amp;lt;&amp;lt; extended &amp;gt;&amp;gt;&lt;/font&gt;&lt;/b&gt;" style="edgeLabel;html=1;align=center;verticalAlign=middle;resizable=0;points=[];" parent="rhURFDJnw8EIfbN3_FGS-126" vertex="1" connectable="0">
          <mxGeometry x="0.1012" y="1" relative="1" as="geometry">
            <mxPoint x="-9" y="-2" as="offset" />
          </mxGeometry>
        </mxCell>
        <mxCell id="rhURFDJnw8EIfbN3_FGS-130" value="" style="endArrow=open;dashed=1;html=1;rounded=0;exitX=1;exitY=0;exitDx=0;exitDy=0;endFill=0;entryX=0;entryY=1;entryDx=0;entryDy=0;" parent="1" source="rhURFDJnw8EIfbN3_FGS-19" target="1z83b8Zoyd066qz08zac-46" edge="1">
          <mxGeometry width="50" height="50" relative="1" as="geometry">
            <mxPoint x="260" y="36" as="sourcePoint" />
            <mxPoint x="601" y="-189" as="targetPoint" />
          </mxGeometry>
        </mxCell>
        <mxCell id="rhURFDJnw8EIfbN3_FGS-131" value="&lt;b&gt;&lt;font style=&quot;font-size: 16px;&quot;&gt;&amp;lt;&amp;lt; extend &amp;gt;&amp;gt;&lt;/font&gt;&lt;/b&gt;" style="edgeLabel;html=1;align=center;verticalAlign=middle;resizable=0;points=[];" parent="rhURFDJnw8EIfbN3_FGS-130" vertex="1" connectable="0">
          <mxGeometry x="-0.1582" relative="1" as="geometry">
            <mxPoint x="93" y="-39" as="offset" />
          </mxGeometry>
        </mxCell>
        <mxCell id="rhURFDJnw8EIfbN3_FGS-132" value="" style="endArrow=open;dashed=1;html=1;rounded=0;exitX=1;exitY=0;exitDx=0;exitDy=0;endFill=0;entryX=0;entryY=0.5;entryDx=0;entryDy=0;" parent="1" source="rhURFDJnw8EIfbN3_FGS-21" target="1z83b8Zoyd066qz08zac-46" edge="1">
          <mxGeometry width="50" height="50" relative="1" as="geometry">
            <mxPoint x="258" y="-49" as="sourcePoint" />
            <mxPoint x="509" y="-189" as="targetPoint" />
          </mxGeometry>
        </mxCell>
        <mxCell id="rhURFDJnw8EIfbN3_FGS-133" value="&lt;b&gt;&lt;font style=&quot;font-size: 16px;&quot;&gt;&amp;lt;&amp;lt; extend &amp;gt;&amp;gt;&lt;/font&gt;&lt;/b&gt;" style="edgeLabel;html=1;align=center;verticalAlign=middle;resizable=0;points=[];" parent="rhURFDJnw8EIfbN3_FGS-132" vertex="1" connectable="0">
          <mxGeometry x="-0.1582" relative="1" as="geometry">
            <mxPoint x="91" y="-30" as="offset" />
          </mxGeometry>
        </mxCell>
        <mxCell id="rhURFDJnw8EIfbN3_FGS-134" value="" style="endArrow=open;dashed=1;html=1;rounded=0;exitX=1;exitY=0.5;exitDx=0;exitDy=0;endFill=0;entryX=0;entryY=0;entryDx=0;entryDy=0;" parent="1" source="rhURFDJnw8EIfbN3_FGS-20" target="1z83b8Zoyd066qz08zac-46" edge="1">
          <mxGeometry width="50" height="50" relative="1" as="geometry">
            <mxPoint x="258" y="-119" as="sourcePoint" />
            <mxPoint x="490" y="-210" as="targetPoint" />
          </mxGeometry>
        </mxCell>
        <mxCell id="rhURFDJnw8EIfbN3_FGS-135" value="&lt;b&gt;&lt;font style=&quot;font-size: 16px;&quot;&gt;&amp;lt;&amp;lt; extend &amp;gt;&amp;gt;&lt;/font&gt;&lt;/b&gt;" style="edgeLabel;html=1;align=center;verticalAlign=middle;resizable=0;points=[];" parent="rhURFDJnw8EIfbN3_FGS-134" vertex="1" connectable="0">
          <mxGeometry x="-0.1582" relative="1" as="geometry">
            <mxPoint x="81" y="-26" as="offset" />
          </mxGeometry>
        </mxCell>
        <mxCell id="rhURFDJnw8EIfbN3_FGS-136" value="" style="endArrow=none;dashed=1;html=1;rounded=0;exitX=0;exitY=0;exitDx=0;exitDy=0;entryX=1;entryY=0.5;entryDx=0;entryDy=0;startArrow=open;startFill=0;" parent="1" source="1z83b8Zoyd066qz08zac-86" target="rhURFDJnw8EIfbN3_FGS-19" edge="1">
          <mxGeometry width="50" height="50" relative="1" as="geometry">
            <mxPoint x="510" y="10" as="sourcePoint" />
            <mxPoint x="278" y="50" as="targetPoint" />
          </mxGeometry>
        </mxCell>
        <mxCell id="rhURFDJnw8EIfbN3_FGS-137" value="&lt;font style=&quot;font-size: 16px;&quot;&gt;&lt;b&gt;&amp;lt;&amp;lt; extend &amp;gt;&amp;gt;&lt;/b&gt;&lt;/font&gt;" style="edgeLabel;html=1;align=center;verticalAlign=middle;resizable=0;points=[];" parent="rhURFDJnw8EIfbN3_FGS-136" vertex="1" connectable="0">
          <mxGeometry x="0.1992" relative="1" as="geometry">
            <mxPoint x="38" y="8" as="offset" />
          </mxGeometry>
        </mxCell>
        <mxCell id="rhURFDJnw8EIfbN3_FGS-138" value="" style="endArrow=none;dashed=1;html=1;rounded=0;exitX=0.5;exitY=0;exitDx=0;exitDy=0;entryX=1;entryY=0.5;entryDx=0;entryDy=0;startArrow=open;startFill=0;" parent="1" source="1z83b8Zoyd066qz08zac-86" target="rhURFDJnw8EIfbN3_FGS-21" edge="1">
          <mxGeometry width="50" height="50" relative="1" as="geometry">
            <mxPoint x="531" y="-11" as="sourcePoint" />
            <mxPoint x="274" y="-35" as="targetPoint" />
          </mxGeometry>
        </mxCell>
        <mxCell id="rhURFDJnw8EIfbN3_FGS-139" value="&lt;font style=&quot;font-size: 16px;&quot;&gt;&lt;b&gt;&amp;lt;&amp;lt; extend &amp;gt;&amp;gt;&lt;/b&gt;&lt;/font&gt;" style="edgeLabel;html=1;align=center;verticalAlign=middle;resizable=0;points=[];" parent="rhURFDJnw8EIfbN3_FGS-138" vertex="1" connectable="0">
          <mxGeometry x="0.1992" relative="1" as="geometry">
            <mxPoint x="-18" y="-12" as="offset" />
          </mxGeometry>
        </mxCell>
        <mxCell id="rhURFDJnw8EIfbN3_FGS-140" value="" style="endArrow=none;dashed=1;html=1;rounded=0;exitX=1;exitY=0;exitDx=0;exitDy=0;entryX=1;entryY=1;entryDx=0;entryDy=0;startArrow=open;startFill=0;" parent="1" source="1z83b8Zoyd066qz08zac-86" target="rhURFDJnw8EIfbN3_FGS-20" edge="1">
          <mxGeometry width="50" height="50" relative="1" as="geometry">
            <mxPoint x="541" y="-1" as="sourcePoint" />
            <mxPoint x="284" y="-25" as="targetPoint" />
          </mxGeometry>
        </mxCell>
        <mxCell id="rhURFDJnw8EIfbN3_FGS-141" value="&lt;font style=&quot;font-size: 16px;&quot;&gt;&lt;b&gt;&amp;lt;&amp;lt; extend &amp;gt;&amp;gt;&lt;/b&gt;&lt;/font&gt;" style="edgeLabel;html=1;align=center;verticalAlign=middle;resizable=0;points=[];" parent="rhURFDJnw8EIfbN3_FGS-140" vertex="1" connectable="0">
          <mxGeometry x="0.1992" relative="1" as="geometry">
            <mxPoint x="128" y="73" as="offset" />
          </mxGeometry>
        </mxCell>
        <mxCell id="rhURFDJnw8EIfbN3_FGS-142" value="" style="endArrow=none;dashed=1;html=1;rounded=0;exitX=1;exitY=1;exitDx=0;exitDy=0;startArrow=open;startFill=0;entryX=0;entryY=0.5;entryDx=0;entryDy=0;" parent="1" source="1z83b8Zoyd066qz08zac-30" target="rhURFDJnw8EIfbN3_FGS-20" edge="1">
          <mxGeometry width="50" height="50" relative="1" as="geometry">
            <mxPoint x="-153.13" y="-240" as="sourcePoint" />
            <mxPoint x="70.86999999999999" y="-255" as="targetPoint" />
          </mxGeometry>
        </mxCell>
        <mxCell id="rhURFDJnw8EIfbN3_FGS-143" value="&lt;font style=&quot;font-size: 16px;&quot;&gt;&lt;b&gt;&amp;lt;&amp;lt; extend &amp;gt;&amp;gt;&lt;/b&gt;&lt;/font&gt;" style="edgeLabel;html=1;align=center;verticalAlign=middle;resizable=0;points=[];" parent="rhURFDJnw8EIfbN3_FGS-142" vertex="1" connectable="0">
          <mxGeometry x="0.1992" relative="1" as="geometry">
            <mxPoint x="-24" y="3" as="offset" />
          </mxGeometry>
        </mxCell>
        <mxCell id="rhURFDJnw8EIfbN3_FGS-144" value="" style="endArrow=none;dashed=1;html=1;rounded=0;exitX=0.5;exitY=1;exitDx=0;exitDy=0;startArrow=open;startFill=0;entryX=0;entryY=0.5;entryDx=0;entryDy=0;" parent="1" source="1z83b8Zoyd066qz08zac-30" target="rhURFDJnw8EIfbN3_FGS-21" edge="1">
          <mxGeometry width="50" height="50" relative="1" as="geometry">
            <mxPoint x="-171.13" y="-229" as="sourcePoint" />
            <mxPoint x="70.86999999999999" y="-185" as="targetPoint" />
          </mxGeometry>
        </mxCell>
        <mxCell id="rhURFDJnw8EIfbN3_FGS-145" value="&lt;font style=&quot;font-size: 16px;&quot;&gt;&lt;b&gt;&amp;lt;&amp;lt; extend &amp;gt;&amp;gt;&lt;/b&gt;&lt;/font&gt;" style="edgeLabel;html=1;align=center;verticalAlign=middle;resizable=0;points=[];" parent="rhURFDJnw8EIfbN3_FGS-144" vertex="1" connectable="0">
          <mxGeometry x="0.1992" relative="1" as="geometry">
            <mxPoint x="-24" y="3" as="offset" />
          </mxGeometry>
        </mxCell>
        <mxCell id="rhURFDJnw8EIfbN3_FGS-146" value="" style="endArrow=none;dashed=1;html=1;rounded=0;exitX=0;exitY=1;exitDx=0;exitDy=0;startArrow=open;startFill=0;entryX=0;entryY=0.5;entryDx=0;entryDy=0;" parent="1" source="1z83b8Zoyd066qz08zac-30" target="rhURFDJnw8EIfbN3_FGS-19" edge="1">
          <mxGeometry width="50" height="50" relative="1" as="geometry">
            <mxPoint x="-161.13" y="-219" as="sourcePoint" />
            <mxPoint x="80.86999999999999" y="-175" as="targetPoint" />
          </mxGeometry>
        </mxCell>
        <mxCell id="rhURFDJnw8EIfbN3_FGS-147" value="&lt;font style=&quot;font-size: 16px;&quot;&gt;&lt;b&gt;&amp;lt;&amp;lt; extend &amp;gt;&amp;gt;&lt;/b&gt;&lt;/font&gt;" style="edgeLabel;html=1;align=center;verticalAlign=middle;resizable=0;points=[];" parent="rhURFDJnw8EIfbN3_FGS-146" vertex="1" connectable="0">
          <mxGeometry x="0.1992" relative="1" as="geometry">
            <mxPoint x="-24" y="3" as="offset" />
          </mxGeometry>
        </mxCell>
        <mxCell id="rhURFDJnw8EIfbN3_FGS-148" value="" style="endArrow=none;dashed=1;html=1;rounded=0;exitX=0.052;exitY=0.808;exitDx=0;exitDy=0;startArrow=open;startFill=0;entryX=0;entryY=0.5;entryDx=0;entryDy=0;exitPerimeter=0;" parent="1" source="1z83b8Zoyd066qz08zac-30" target="rhURFDJnw8EIfbN3_FGS-101" edge="1">
          <mxGeometry width="50" height="50" relative="1" as="geometry">
            <mxPoint x="-151.13" y="-209" as="sourcePoint" />
            <mxPoint x="90.86999999999999" y="-165" as="targetPoint" />
          </mxGeometry>
        </mxCell>
        <mxCell id="rhURFDJnw8EIfbN3_FGS-149" value="&lt;font style=&quot;font-size: 16px;&quot;&gt;&lt;b&gt;&amp;lt;&amp;lt; extend &amp;gt;&amp;gt;&lt;/b&gt;&lt;/font&gt;" style="edgeLabel;html=1;align=center;verticalAlign=middle;resizable=0;points=[];" parent="rhURFDJnw8EIfbN3_FGS-148" vertex="1" connectable="0">
          <mxGeometry x="0.1992" relative="1" as="geometry">
            <mxPoint x="-24" y="3" as="offset" />
          </mxGeometry>
        </mxCell>
        <mxCell id="9sP5_PO6IDdaQjhql2p2-14" value="" style="endArrow=none;html=1;rounded=0;entryX=1;entryY=0.5;entryDx=0;entryDy=0;exitX=0;exitY=0.3333333333333333;exitDx=0;exitDy=0;exitPerimeter=0;" parent="1" source="1z83b8Zoyd066qz08zac-16" target="1z83b8Zoyd066qz08zac-26" edge="1">
          <mxGeometry width="50" height="50" relative="1" as="geometry">
            <mxPoint x="1010" y="310" as="sourcePoint" />
            <mxPoint x="660" y="20" as="targetPoint" />
            <Array as="points">
              <mxPoint x="610" y="110" />
            </Array>
          </mxGeometry>
        </mxCell>
        <mxCell id="9sP5_PO6IDdaQjhql2p2-15" value="" style="endArrow=none;html=1;rounded=0;entryX=0;entryY=0.5;entryDx=0;entryDy=0;exitX=0;exitY=0.3333333333333333;exitDx=0;exitDy=0;exitPerimeter=0;" parent="1" source="1z83b8Zoyd066qz08zac-17" target="1z83b8Zoyd066qz08zac-26" edge="1">
          <mxGeometry width="50" height="50" relative="1" as="geometry">
            <mxPoint x="1020" y="320" as="sourcePoint" />
            <mxPoint x="197" y="110" as="targetPoint" />
            <Array as="points">
              <mxPoint x="-80" y="200" />
            </Array>
          </mxGeometry>
        </mxCell>
        <mxCell id="9sP5_PO6IDdaQjhql2p2-16" value="" style="endArrow=none;html=1;rounded=0;entryX=0;entryY=0.5;entryDx=0;entryDy=0;exitX=1;exitY=0.3333333333333333;exitDx=0;exitDy=0;exitPerimeter=0;" parent="1" source="1z83b8Zoyd066qz08zac-20" target="1z83b8Zoyd066qz08zac-26" edge="1">
          <mxGeometry width="50" height="50" relative="1" as="geometry">
            <mxPoint x="-523" y="-540" as="sourcePoint" />
            <mxPoint x="-393" y="-180" as="targetPoint" />
            <Array as="points">
              <mxPoint x="-180" y="-10" />
            </Array>
          </mxGeometry>
        </mxCell>
        <mxCell id="9sP5_PO6IDdaQjhql2p2-17" value="" style="endArrow=none;html=1;rounded=0;exitX=1;exitY=0;exitDx=0;exitDy=0;entryX=0;entryY=0.3333333333333333;entryDx=0;entryDy=0;entryPerimeter=0;" parent="1" source="1z83b8Zoyd066qz08zac-26" target="1z83b8Zoyd066qz08zac-15" edge="1">
          <mxGeometry width="50" height="50" relative="1" as="geometry">
            <mxPoint x="881" y="-220" as="sourcePoint" />
            <mxPoint x="1010" y="-510" as="targetPoint" />
            <Array as="points">
              <mxPoint x="950" y="40" />
            </Array>
          </mxGeometry>
        </mxCell>
        <mxCell id="9sP5_PO6IDdaQjhql2p2-18" value="&lt;b&gt;&lt;font style=&quot;font-size: 16px;&quot;&gt;Logout&lt;/font&gt;&lt;/b&gt;" style="ellipse;whiteSpace=wrap;html=1;" parent="1" vertex="1">
          <mxGeometry x="170.62" y="407.5" width="140" height="62.5" as="geometry" />
        </mxCell>
        <mxCell id="9sP5_PO6IDdaQjhql2p2-19" value="" style="endArrow=none;html=1;rounded=0;exitX=0;exitY=0.3333333333333333;exitDx=0;exitDy=0;exitPerimeter=0;entryX=1;entryY=1;entryDx=0;entryDy=0;" parent="1" source="1z83b8Zoyd066qz08zac-16" target="9sP5_PO6IDdaQjhql2p2-18" edge="1">
          <mxGeometry width="50" height="50" relative="1" as="geometry">
            <mxPoint x="1020" y="320" as="sourcePoint" />
            <mxPoint x="560" y="500" as="targetPoint" />
            <Array as="points">
              <mxPoint x="620" y="480" />
            </Array>
          </mxGeometry>
        </mxCell>
        <mxCell id="9sP5_PO6IDdaQjhql2p2-21" value="" style="endArrow=none;html=1;rounded=0;exitX=0;exitY=0.3333333333333333;exitDx=0;exitDy=0;exitPerimeter=0;entryX=0;entryY=0.5;entryDx=0;entryDy=0;" parent="1" source="1z83b8Zoyd066qz08zac-17" target="9sP5_PO6IDdaQjhql2p2-18" edge="1">
          <mxGeometry width="50" height="50" relative="1" as="geometry">
            <mxPoint x="1020" y="320" as="sourcePoint" />
            <mxPoint x="240" y="383" as="targetPoint" />
            <Array as="points">
              <mxPoint x="-200" y="350" />
            </Array>
          </mxGeometry>
        </mxCell>
        <mxCell id="9sP5_PO6IDdaQjhql2p2-22" value="" style="endArrow=none;html=1;rounded=0;entryX=0;entryY=0;entryDx=0;entryDy=0;exitX=1;exitY=0.3333333333333333;exitDx=0;exitDy=0;exitPerimeter=0;" parent="1" source="1z83b8Zoyd066qz08zac-20" target="9sP5_PO6IDdaQjhql2p2-18" edge="1">
          <mxGeometry width="50" height="50" relative="1" as="geometry">
            <mxPoint x="-523" y="-540" as="sourcePoint" />
            <mxPoint x="77" y="110" as="targetPoint" />
            <Array as="points">
              <mxPoint x="-200" y="10" />
            </Array>
          </mxGeometry>
        </mxCell>
        <mxCell id="9sP5_PO6IDdaQjhql2p2-24" value="" style="endArrow=none;html=1;rounded=0;entryX=0;entryY=0.3333333333333333;entryDx=0;entryDy=0;entryPerimeter=0;exitX=1;exitY=0.5;exitDx=0;exitDy=0;" parent="1" source="9sP5_PO6IDdaQjhql2p2-18" target="1z83b8Zoyd066qz08zac-15" edge="1">
          <mxGeometry width="50" height="50" relative="1" as="geometry">
            <mxPoint x="881" y="-220" as="sourcePoint" />
            <mxPoint x="1020" y="-500" as="targetPoint" />
            <Array as="points">
              <mxPoint x="750" y="410" />
            </Array>
          </mxGeometry>
        </mxCell>
        <mxCell id="9sP5_PO6IDdaQjhql2p2-32" value="" style="endArrow=none;html=1;rounded=0;exitX=1;exitY=0.3333333333333333;exitDx=0;exitDy=0;exitPerimeter=0;entryX=0;entryY=1;entryDx=0;entryDy=0;" parent="1" source="1z83b8Zoyd066qz08zac-21" target="1z83b8Zoyd066qz08zac-26" edge="1">
          <mxGeometry width="50" height="50" relative="1" as="geometry">
            <mxPoint x="-523" y="859" as="sourcePoint" />
            <mxPoint x="78" y="930" as="targetPoint" />
            <Array as="points">
              <mxPoint x="-30" y="900" />
            </Array>
          </mxGeometry>
        </mxCell>
        <mxCell id="9sP5_PO6IDdaQjhql2p2-33" value="" style="endArrow=none;html=1;rounded=0;entryX=1;entryY=1;entryDx=0;entryDy=0;exitX=1;exitY=0.3333333333333333;exitDx=0;exitDy=0;exitPerimeter=0;" parent="1" source="1z83b8Zoyd066qz08zac-18" target="1z83b8Zoyd066qz08zac-26" edge="1">
          <mxGeometry width="50" height="50" relative="1" as="geometry">
            <mxPoint x="-523" y="859" as="sourcePoint" />
            <mxPoint x="197.6300000000001" y="930" as="targetPoint" />
            <Array as="points">
              <mxPoint x="370" y="970" />
              <mxPoint x="430" y="750" />
              <mxPoint x="420" y="490" />
            </Array>
          </mxGeometry>
        </mxCell>
        <mxCell id="9sP5_PO6IDdaQjhql2p2-35" value="" style="endArrow=none;html=1;rounded=0;exitX=0.5;exitY=1;exitDx=0;exitDy=0;entryX=0;entryY=0.3333333333333333;entryDx=0;entryDy=0;entryPerimeter=0;" parent="1" source="1z83b8Zoyd066qz08zac-26" target="1z83b8Zoyd066qz08zac-14" edge="1">
          <mxGeometry width="50" height="50" relative="1" as="geometry">
            <mxPoint x="180.05640687119285" y="944.1421356237311" as="sourcePoint" />
            <mxPoint x="1020" y="1277" as="targetPoint" />
            <Array as="points">
              <mxPoint x="10" y="760" />
              <mxPoint x="300" y="1160" />
              <mxPoint x="480" y="1360" />
            </Array>
          </mxGeometry>
        </mxCell>
        <mxCell id="9sP5_PO6IDdaQjhql2p2-36" value="" style="endArrow=none;html=1;rounded=0;exitX=0.5;exitY=1;exitDx=0;exitDy=0;entryX=0;entryY=0.3333333333333333;entryDx=0;entryDy=0;entryPerimeter=0;" parent="1" source="1z83b8Zoyd066qz08zac-26" target="1z83b8Zoyd066qz08zac-19" edge="1">
          <mxGeometry width="50" height="50" relative="1" as="geometry">
            <mxPoint x="95.20359312880737" y="944.1421356237306" as="sourcePoint" />
            <mxPoint x="-510" y="1337" as="targetPoint" />
            <Array as="points">
              <mxPoint x="40" y="1130" />
            </Array>
          </mxGeometry>
        </mxCell>
        <mxCell id="9sP5_PO6IDdaQjhql2p2-37" value="" style="endArrow=none;html=1;rounded=0;exitX=0.5;exitY=1;exitDx=0;exitDy=0;entryX=0;entryY=0.3333333333333333;entryDx=0;entryDy=0;entryPerimeter=0;" parent="1" source="9sP5_PO6IDdaQjhql2p2-18" target="1z83b8Zoyd066qz08zac-19" edge="1">
          <mxGeometry width="50" height="50" relative="1" as="geometry">
            <mxPoint x="210" y="1323.75" as="sourcePoint" />
            <mxPoint x="-510" y="1337" as="targetPoint" />
            <Array as="points">
              <mxPoint x="110" y="1520" />
              <mxPoint x="-90" y="1520" />
            </Array>
          </mxGeometry>
        </mxCell>
        <mxCell id="9sP5_PO6IDdaQjhql2p2-40" value="" style="endArrow=none;html=1;rounded=0;entryX=0;entryY=1;entryDx=0;entryDy=0;exitX=1;exitY=0.3333333333333333;exitDx=0;exitDy=0;exitPerimeter=0;" parent="1" source="1z83b8Zoyd066qz08zac-21" target="9sP5_PO6IDdaQjhql2p2-18" edge="1">
          <mxGeometry width="50" height="50" relative="1" as="geometry">
            <mxPoint x="-523" y="859" as="sourcePoint" />
            <mxPoint x="229.50288752783354" y="1302.1083803690717" as="targetPoint" />
            <Array as="points">
              <mxPoint x="-290" y="1060" />
              <mxPoint x="-50" y="1120" />
              <mxPoint x="290" y="870" />
              <mxPoint x="290" y="670" />
            </Array>
          </mxGeometry>
        </mxCell>
        <mxCell id="9sP5_PO6IDdaQjhql2p2-42" value="" style="endArrow=none;html=1;rounded=0;exitX=0.5;exitY=1;exitDx=0;exitDy=0;entryX=0;entryY=0.3333333333333333;entryDx=0;entryDy=0;entryPerimeter=0;" parent="1" source="9sP5_PO6IDdaQjhql2p2-18" target="1z83b8Zoyd066qz08zac-14" edge="1">
          <mxGeometry width="50" height="50" relative="1" as="geometry">
            <mxPoint x="330.49711247216646" y="1302.1083803690717" as="sourcePoint" />
            <mxPoint x="950" y="1270" as="targetPoint" />
            <Array as="points">
              <mxPoint x="540" y="1324" />
            </Array>
          </mxGeometry>
        </mxCell>
        <mxCell id="9sP5_PO6IDdaQjhql2p2-46" value="" style="endArrow=none;html=1;rounded=0;exitX=1;exitY=0.3333333333333333;exitDx=0;exitDy=0;entryX=1;entryY=1;entryDx=0;entryDy=0;exitPerimeter=0;" parent="1" source="1z83b8Zoyd066qz08zac-18" target="9sP5_PO6IDdaQjhql2p2-18" edge="1">
          <mxGeometry width="50" height="50" relative="1" as="geometry">
            <mxPoint x="1080" y="970" as="sourcePoint" />
            <mxPoint x="280" y="1292.5" as="targetPoint" />
            <Array as="points">
              <mxPoint x="850" y="1120" />
              <mxPoint x="510" y="1140" />
              <mxPoint x="350" y="1000" />
            </Array>
          </mxGeometry>
        </mxCell>
        <mxCell id="9sP5_PO6IDdaQjhql2p2-47" value="&lt;b&gt;&lt;font style=&quot;font-size: 30px;&quot;&gt;Health Guardian App System&lt;/font&gt;&lt;/b&gt;" style="text;html=1;strokeColor=none;fillColor=none;align=center;verticalAlign=middle;whiteSpace=wrap;rounded=0;" parent="1" vertex="1">
          <mxGeometry x="12.750000000000028" y="-850" width="537.25" height="30" as="geometry" />
        </mxCell>
      </root>
    </mxGraphModel>
  </diagram>
</mxfile>
